<svg width="466" height="347" viewBox="0 0 466 347" fill="none" xmlns="http://www.w3.org/2000/svg">
<path d="M465.697 304.938H0V305.171H465.697V304.938Z" fill="#EBEBEB"/>
<path d="M68.6157 313.805H48.8608V314.038H68.6157V313.805Z" fill="#EBEBEB"/>
<path d="M238.539 311.281H159.399V311.514H238.539V311.281Z" fill="#EBEBEB"/>
<path d="M98.5228 322.458H63.0273V322.691H98.5228V322.458Z" fill="#EBEBEB"/>
<path d="M419.034 320.893H378.807V321.126H419.034V320.893Z" fill="#EBEBEB"/>
<path d="M375.762 320.893H364.613V321.126H375.762V320.893Z" fill="#EBEBEB"/>
<path d="M345.445 316.963H324.022V317.195H345.445V316.963Z" fill="#EBEBEB"/>
<path d="M313.256 316.963H268.139V317.195H313.256V316.963Z" fill="#EBEBEB"/>
<path d="M220.74 263.398H40.8973C39.4884 263.396 38.1381 262.834 37.1428 261.837C36.1474 260.84 35.5884 259.489 35.5884 258.08V5.27169C35.6006 3.8709 36.1651 2.53151 37.1591 1.54445C38.1532 0.5574 39.4965 0.00239963 40.8973 0H220.74C222.151 0 223.503 0.560315 224.501 1.55768C225.498 2.55505 226.058 3.90777 226.058 5.31826V258.08C226.058 259.49 225.498 260.843 224.501 261.84C223.503 262.838 222.151 263.398 220.74 263.398ZM40.8973 0.186279C39.5502 0.188747 38.2591 0.725616 37.3074 1.67905C36.3557 2.63248 35.8212 3.92457 35.8212 5.27169V258.08C35.8212 259.427 36.3557 260.719 37.3074 261.673C38.2591 262.626 39.5502 263.163 40.8973 263.165H220.74C222.088 263.163 223.38 262.626 224.333 261.673C225.286 260.72 225.823 259.428 225.826 258.08V5.27169C225.823 3.92371 225.286 2.63165 224.333 1.67848C223.38 0.725314 222.088 0.188742 220.74 0.186279H40.8973Z" fill="#EBEBEB"/>
<path d="M422.21 263.398H242.358C240.948 263.396 239.597 262.835 238.6 261.838C237.603 260.841 237.042 259.49 237.04 258.08V5.27169C237.054 3.87005 237.621 2.53067 238.616 1.54387C239.612 0.557075 240.956 0.00237346 242.358 0H422.21C423.609 0.00484743 424.95 0.560931 425.942 1.54772C426.934 2.53451 427.497 3.8725 427.51 5.27169V258.08C427.51 259.487 426.952 260.837 425.958 261.834C424.965 262.831 423.617 263.393 422.21 263.398ZM242.358 0.186279C241.01 0.188742 239.718 0.725314 238.765 1.67848C237.811 2.63165 237.275 3.92371 237.272 5.27169V258.08C237.275 259.428 237.811 260.72 238.765 261.673C239.718 262.626 241.01 263.163 242.358 263.165H422.21C423.558 263.163 424.85 262.626 425.803 261.673C426.756 260.72 427.293 259.428 427.295 258.08V5.27169C427.293 3.92371 426.756 2.63165 425.803 1.67848C424.85 0.725314 423.558 0.188742 422.21 0.186279H242.358Z" fill="#EBEBEB"/>
<path d="M49.9414 304.938H81.3853L81.3853 173.63H49.9414L49.9414 304.938Z" fill="#E6E6E6"/>
<path d="M55.1666 304.938H49.9321V293.119H60.6525L55.1666 304.938Z" fill="#F0F0F0"/>
<path d="M258.173 304.938H289.617V173.63H258.173V304.938Z" fill="#E6E6E6"/>
<path d="M49.9413 300.402H262.737V173.63L49.9413 173.63L49.9413 300.402Z" fill="#F0F0F0"/>
<path d="M54.0025 214.016L258.676 214.016V179.247L54.0025 179.247V214.016Z" fill="#E6E6E6"/>
<path d="M54.0025 183.988L258.676 183.988V179.256L54.0025 179.256V183.988Z" fill="#E0E0E0"/>
<path d="M257.502 304.938H262.736V293.119H252.007L257.502 304.938Z" fill="#F0F0F0"/>
<path d="M54.0025 254.401L258.676 254.401V219.632L54.0025 219.632V254.401Z" fill="#E6E6E6"/>
<path d="M54.0025 224.373L258.676 224.373V219.641L54.0025 219.641V224.373Z" fill="#E0E0E0"/>
<path d="M54.0025 294.777H258.676V260.008H54.0025V294.777Z" fill="#E6E6E6"/>
<path d="M54.0025 264.749H258.676V260.017H54.0025V264.749Z" fill="#E0E0E0"/>
<path d="M333.458 304.938H406.367L412.84 75.9272H339.931L333.458 304.938Z" fill="#E6E6E6"/>
<path d="M331.231 304.938H404.141L410.614 75.9272H337.705L331.231 304.938Z" fill="#F0F0F0"/>
<path d="M399.773 298.428L405.873 82.4377H342.073L335.972 298.428H399.773Z" fill="#FAFAFA"/>
<path d="M75.5918 137.986L285.882 137.986V20.705L75.5918 20.705L75.5918 137.986Z" fill="#F0F0F0"/>
<path d="M68.029 137.986L282.352 137.986V20.705L68.029 20.705L68.029 137.986Z" fill="#F5F5F5"/>
<path d="M271.734 128.225V30.4473L78.6192 30.4473V128.225H271.734Z" fill="white"/>
<path d="M78.1344 168.377C82.1364 168.377 85.3807 165.133 85.3807 161.131C85.3807 157.129 82.1364 153.885 78.1344 153.885C74.1324 153.885 70.8882 157.129 70.8882 161.131C70.8882 165.133 74.1324 168.377 78.1344 168.377Z" fill="#F0F0F0"/>
<path d="M96.8764 166.125C97.7957 162.231 95.3834 158.328 91.4885 157.408C87.5935 156.489 83.6908 158.901 82.7715 162.796C81.8522 166.691 84.2644 170.594 88.1594 171.513C92.0544 172.433 95.9571 170.02 96.8764 166.125Z" fill="#E6E6E6"/>
<path d="M107.016 161.108C107.935 157.213 105.523 153.31 101.628 152.391C97.7327 151.472 93.8299 153.884 92.9106 157.779C91.9913 161.674 94.4036 165.577 98.2986 166.496C102.194 167.415 106.096 165.003 107.016 161.108Z" fill="#F0F0F0"/>
<path d="M112.27 163.832C112.27 163.832 111.637 173.63 87.1227 173.63C62.6084 173.63 61.9751 163.832 61.9751 163.832H112.27Z" fill="#E6E6E6"/>
<path d="M232.849 347C332.585 347 413.437 342.28 413.437 336.457C413.437 330.634 332.585 325.913 232.849 325.913C133.113 325.913 52.2607 330.634 52.2607 336.457C52.2607 342.28 133.113 347 232.849 347Z" fill="#F5F5F5"/>
<path d="M351.377 336.457H254.214C252.608 336.464 251.016 336.146 249.537 335.52C248.057 334.894 246.72 333.974 245.607 332.815C244.493 331.657 243.627 330.284 243.061 328.78C242.494 327.277 242.239 325.674 242.311 324.069L253.153 44.2597C253.318 40.946 254.741 37.8201 257.131 35.5186C259.52 33.2171 262.698 31.9131 266.015 31.8722H363.178C364.784 31.8656 366.375 32.1852 367.854 32.8116C369.334 33.438 370.67 34.3582 371.783 35.5165C372.896 36.6747 373.762 38.0468 374.329 39.5497C374.896 41.0526 375.152 42.655 375.081 44.2597L364.24 324.069C364.074 327.383 362.652 330.509 360.262 332.81C357.872 335.112 354.695 336.416 351.377 336.457Z" fill="#263238"/>
<path d="M243.317 60.792H242.386L243.038 44.1667C243.233 40.0113 245.011 36.0882 248.007 33.2026C251.004 30.317 254.991 28.6879 259.151 28.6497V29.5811C255.232 29.6195 251.476 31.1556 248.653 33.8745C245.83 36.5934 244.154 40.2891 243.969 44.2039L243.317 60.792Z" fill="#407BFF"/>
<path d="M273.671 28.6123H265.754V29.5437H273.671V28.6123Z" fill="#407BFF"/>
<path d="M344.513 336.457H247.35C245.744 336.464 244.152 336.146 242.672 335.52C241.193 334.894 239.856 333.974 238.742 332.815C237.629 331.657 236.763 330.284 236.196 328.78C235.63 327.277 235.375 325.674 235.447 324.069L246.288 44.2597C246.454 40.946 247.877 37.8201 250.266 35.5186C252.656 33.2171 255.833 31.9131 259.151 31.8722H356.314C357.92 31.8656 359.511 32.1852 360.99 32.8116C362.469 33.438 363.806 34.3582 364.919 35.5165C366.032 36.6747 366.898 38.0468 367.465 39.5497C368.032 41.0526 368.288 42.655 368.217 44.2597L357.376 324.069C357.21 327.383 355.787 330.509 353.398 332.81C351.008 335.112 347.831 336.416 344.513 336.457Z" fill="#407BFF"/>
<path opacity="0.8" d="M347.605 304.268H246.754C245.856 304.274 244.965 304.097 244.138 303.748C243.31 303.399 242.561 302.885 241.938 302.237C241.315 301.59 240.831 300.823 240.514 299.982C240.197 299.141 240.054 298.245 240.095 297.347L249.502 54.5888C249.592 52.7335 250.387 50.9828 251.726 49.6947C253.064 48.4066 254.844 47.6785 256.701 47.6593H357.543C358.442 47.6546 359.333 47.8327 360.161 48.1827C360.988 48.5328 361.737 49.0475 362.359 49.6956C362.982 50.3437 363.467 51.1117 363.784 51.9529C364.101 52.794 364.243 53.6909 364.203 54.5888L354.796 297.347C354.706 299.2 353.911 300.949 352.574 302.235C351.238 303.521 349.46 304.248 347.605 304.268Z" fill="white"/>
<path opacity="0.4" d="M304.789 304.268H279.642L322.057 47.6594H347.205L304.789 304.268Z" fill="white"/>
<path opacity="0.4" d="M275.217 304.268H262.644L305.059 47.6594H317.633L275.217 304.268Z" fill="white"/>
<path d="M320.968 229.234H271.38C269.089 229.234 267.273 226.729 267.17 223.432L265.764 177.393C265.652 173.602 267.832 170.314 270.467 170.314H326.351C328.987 170.314 330.915 173.602 330.514 177.393L325.615 223.432C325.261 226.729 323.249 229.234 320.968 229.234Z" fill="#407BFF"/>
<path d="M320.968 230.985H271.38C268.111 230.985 265.559 227.754 265.429 223.488L264.022 177.449C263.886 174.849 264.784 172.302 266.518 170.361C267.022 169.812 267.632 169.371 268.31 169.064C268.989 168.757 269.723 168.59 270.467 168.573H326.351C327.093 168.591 327.824 168.766 328.493 169.087C329.163 169.408 329.756 169.868 330.235 170.436C331.043 171.432 331.639 172.583 331.985 173.818C332.331 175.053 332.42 176.346 332.247 177.617L327.348 223.655C326.919 227.809 324.125 230.985 320.968 230.985ZM270.467 172.056C270.19 172.078 269.92 172.154 269.672 172.28C269.425 172.407 269.204 172.58 269.024 172.792C267.949 174.054 267.405 175.683 267.506 177.337L268.912 223.376C268.977 225.649 270.086 227.493 271.38 227.493H320.968C322.151 227.493 323.613 225.788 323.883 223.246L328.782 177.207C328.899 176.423 328.859 175.625 328.664 174.857C328.469 174.089 328.123 173.368 327.646 172.736C327.493 172.535 327.298 172.369 327.074 172.252C326.85 172.134 326.604 172.068 326.351 172.056H270.467Z" fill="#407BFF"/>
<path d="M325.615 225.174H325.429C325.201 225.149 324.981 225.08 324.78 224.971C324.579 224.861 324.402 224.713 324.258 224.535C324.115 224.357 324.007 224.152 323.943 223.932C323.879 223.713 323.858 223.483 323.883 223.255L329.266 172.652C330.104 164.745 335.087 158.784 340.853 158.784H344.615C345.077 158.784 345.52 158.967 345.847 159.294C346.174 159.621 346.357 160.064 346.357 160.526C346.357 160.988 346.174 161.431 345.847 161.757C345.52 162.084 345.077 162.267 344.615 162.267H340.89C336.978 162.267 333.439 166.99 332.768 173.025L327.385 223.628C327.338 224.061 327.13 224.46 326.802 224.747C326.474 225.033 326.05 225.186 325.615 225.174Z" fill="#407BFF"/>
<path d="M281.579 246.363C280.61 246.346 279.654 246.131 278.772 245.73C277.889 245.33 277.098 244.753 276.447 244.034C274.174 241.669 272.908 237.803 273.057 233.696C273.327 226.738 277.546 221.085 282.473 221.085C283.443 221.099 284.399 221.313 285.282 221.714C286.165 222.115 286.956 222.693 287.605 223.413C289.878 225.779 291.144 229.644 290.995 233.752C290.725 240.709 286.506 246.363 281.579 246.363ZM282.51 222.603C278.394 222.603 274.845 227.604 274.612 233.78C274.472 237.505 275.544 240.933 277.583 243.01C278.092 243.579 278.713 244.039 279.407 244.359C280.1 244.679 280.852 244.854 281.616 244.873C285.733 244.873 289.282 239.871 289.514 233.696C289.654 229.97 288.583 226.543 286.543 224.466C286.03 223.891 285.403 223.43 284.703 223.109C284.002 222.788 283.243 222.616 282.473 222.603H282.51Z" fill="#407BFF"/>
<path d="M308.673 246.363C307.705 246.346 306.751 246.131 305.87 245.73C304.989 245.33 304.199 244.752 303.551 244.034C301.269 241.669 300.002 237.803 300.16 233.696C300.421 226.738 304.65 221.085 309.577 221.085C310.545 221.099 311.5 221.314 312.381 221.714C313.263 222.115 314.052 222.693 314.699 223.413C316.981 225.779 318.248 229.644 318.09 233.752C317.829 240.709 313.6 246.363 308.673 246.363ZM309.605 222.603C305.479 222.603 301.939 227.604 301.706 233.78C301.567 237.505 302.638 240.933 304.668 243.01C305.177 243.579 305.798 244.039 306.492 244.359C307.185 244.679 307.937 244.854 308.701 244.873C312.827 244.873 316.367 239.871 316.599 233.696C316.739 229.97 315.668 226.543 313.638 224.466C313.125 223.893 312.5 223.431 311.801 223.111C311.103 222.79 310.345 222.617 309.577 222.603H309.605Z" fill="#407BFF"/>
<path d="M319.998 125.043C321.172 108.82 313.062 95.0131 301.882 94.2039C290.703 93.3947 280.688 105.89 279.514 122.113C278.34 138.335 286.45 152.142 297.63 152.952C308.809 153.761 318.824 141.266 319.998 125.043Z" fill="#407BFF"/>
<path d="M298.651 154.751C296.272 154.711 293.926 154.181 291.76 153.196C289.593 152.211 287.653 150.79 286.059 149.023C280.471 143.192 277.322 133.655 277.676 123.531C278.328 106.384 288.723 92.4407 300.849 92.4407C303.229 92.478 305.575 93.005 307.741 93.989C309.908 94.9729 311.848 96.3925 313.442 98.1594C319.03 103.999 322.188 113.527 321.824 123.661C321.172 140.799 310.778 154.751 298.651 154.751ZM300.84 95.9334C290.595 95.9334 281.728 108.377 281.15 123.67C280.797 132.872 283.563 141.451 288.536 146.62C289.809 148.044 291.36 149.191 293.093 149.992C294.826 150.793 296.705 151.23 298.614 151.277C308.859 151.277 317.726 138.833 318.304 123.54C318.658 114.338 315.901 105.76 310.927 100.59C309.654 99.1655 308.101 98.0171 306.366 97.2161C304.631 96.4151 302.751 95.9785 300.84 95.9334Z" fill="white"/>
<path d="M285.938 122.944C285.938 122.944 293.668 130.395 296.798 139.97C299.499 132.519 303.532 122.078 313.134 110.389C301.52 118.101 297.096 127.778 297.096 127.778C293.859 125.224 290.014 123.558 285.938 122.944Z" fill="white"/>
<path d="M296.286 327.785C295.464 327.779 294.653 327.603 293.903 327.268C293.153 326.933 292.48 326.446 291.927 325.839C291.044 324.85 290.367 323.695 289.937 322.441C289.507 321.187 289.331 319.859 289.421 318.537C289.626 313.451 293.007 309.316 296.966 309.316C297.788 309.325 298.599 309.504 299.349 309.84C300.099 310.177 300.771 310.664 301.325 311.272C302.203 312.256 302.876 313.405 303.304 314.653C303.733 315.9 303.909 317.221 303.821 318.537C303.635 323.65 300.244 327.785 296.286 327.785ZM296.966 310.303C293.529 310.303 290.586 314.029 290.446 318.574C290.36 319.763 290.512 320.957 290.895 322.087C291.277 323.216 291.881 324.257 292.672 325.15C293.134 325.661 293.697 326.072 294.325 326.355C294.954 326.639 295.634 326.79 296.323 326.798C299.76 326.798 302.703 323.073 302.843 318.537C302.929 317.346 302.777 316.15 302.394 315.02C302.012 313.889 301.408 312.846 300.617 311.952C300.155 311.44 299.592 311.03 298.964 310.746C298.335 310.462 297.655 310.312 296.966 310.303Z" fill="white"/>
<path d="M307.304 43.4216C306.923 43.4118 306.548 43.3241 306.202 43.1639C305.856 43.0038 305.546 42.7745 305.292 42.4902C304.901 42.0527 304.601 41.5414 304.411 40.9863C304.221 40.4312 304.143 39.8437 304.184 39.2583C304.268 37.0043 305.795 35.1694 307.583 35.1694C307.964 35.1792 308.34 35.2669 308.686 35.4271C309.032 35.5872 309.341 35.8165 309.595 36.1008C309.988 36.5373 310.29 37.0482 310.482 37.6034C310.674 38.1586 310.752 38.7467 310.713 39.3328C310.629 41.5867 309.092 43.4216 307.304 43.4216ZM307.583 36.194C306.317 36.194 305.227 37.6004 305.162 39.3328C305.101 40.2456 305.402 41.1455 306 41.8382C306.164 42.0221 306.365 42.1701 306.59 42.2727C306.814 42.3752 307.057 42.4303 307.304 42.4343C308.571 42.4343 309.66 41.0279 309.726 39.2955C309.79 38.3793 309.489 37.4747 308.887 36.7807C308.722 36.5989 308.52 36.4531 308.296 36.3521C308.072 36.2512 307.829 36.1974 307.583 36.194Z" fill="white"/>
<path d="M175.754 64.4991C165.089 63.0741 159.324 69.538 162.36 81.2642C165.22 92.3105 159.687 90.8389 158.635 101.298C157.582 111.758 166.207 112.186 169.011 120.727C171.814 129.268 187.303 138.973 193.357 134.596C199.411 130.218 211.426 131.224 212.525 116.769C213.624 102.314 202.187 101.531 206.108 93.6331C211.212 83.3878 199.905 85.8839 199.905 72.8258C199.933 62.3103 184.686 50.9194 175.754 64.4991Z" fill="#263238"/>
<path d="M162.333 120.15C162.1 124.611 161.69 128.924 161.038 133.311C160.467 137.846 159.473 142.317 158.067 146.667C157.631 147.936 157.076 149.162 156.409 150.327C155.953 151.119 155.392 151.846 154.742 152.488L154.416 152.786L154.239 152.926L154.136 153.01L153.745 153.28L152.972 153.82C151.003 155.084 148.931 156.18 146.778 157.098C142.7 158.889 138.462 160.292 134.121 161.29L132.621 157.164C136.3 155.124 140.072 153.037 143.518 150.877C145.202 149.848 146.819 148.716 148.362 147.486L148.865 147.049L149.125 146.834V146.788C149.125 146.788 149.228 146.611 149.358 146.341C149.69 145.601 149.967 144.839 150.187 144.059C150.716 142.163 151.133 140.238 151.435 138.294C151.789 136.282 152.078 134.223 152.32 132.146C152.795 128.011 153.205 123.764 153.522 119.638L162.333 120.15Z" fill="#FFB573"/>
<path d="M135.359 157.257L128.244 155.059L129.576 163.665C129.576 163.665 134.233 163.087 136.477 160.489L135.359 157.257Z" fill="#FFB573"/>
<path d="M122.432 160.6L122.823 161.727C123.048 162.367 123.473 162.917 124.035 163.296C124.597 163.675 125.266 163.863 125.943 163.832L129.576 163.665L128.244 155.059L124.248 156.623C123.491 156.924 122.879 157.505 122.54 158.247C122.202 158.988 122.163 159.831 122.432 160.6Z" fill="#FFB573"/>
<path d="M170.743 111.833C170.743 114.524 169.439 119.824 168.331 123.81C167.511 126.679 166.822 128.859 166.822 128.859L165.192 128.449L151.733 125.04C151.519 118.129 151.789 110.529 158.663 105.983C162.994 103.133 170.706 107.045 170.743 111.833Z" fill="#407BFF"/>
<g opacity="0.5">
<path opacity="0.5" d="M170.743 111.833C170.743 114.524 169.439 119.824 168.331 123.81C167.511 126.679 166.822 128.859 166.822 128.859L165.192 128.449L151.733 125.04C151.519 118.129 151.789 110.529 158.663 105.983C162.994 103.133 170.706 107.045 170.743 111.833Z" fill="black"/>
</g>
<path opacity="0.3" d="M170.724 112.298C169.849 111.367 167.856 111.208 163.516 112.587C157.294 114.552 155.552 121.37 155.468 125.99L165.192 128.449L166.03 128.663L166.822 128.858C166.822 128.858 167.167 127.769 167.651 126.111C167.846 125.431 168.089 124.648 168.321 123.81C169.383 120.047 170.613 115.092 170.724 112.298Z" fill="black"/>
<path d="M143.118 328.102L134.903 325.224L140.063 307.435L148.268 310.322L143.118 328.102Z" fill="#FFB573"/>
<path d="M252.854 307.025L246.176 311.998L232.494 298.13L239.172 293.147L252.854 307.025Z" fill="#FFB573"/>
<path d="M243.438 309.977L250.657 304.007C250.777 303.9 250.933 303.841 251.094 303.841C251.256 303.841 251.411 303.9 251.532 304.007L257.074 309.036C257.21 309.167 257.316 309.325 257.386 309.5C257.457 309.676 257.489 309.863 257.481 310.052C257.473 310.24 257.425 310.425 257.341 310.594C257.256 310.762 257.136 310.911 256.99 311.03C254.438 313.069 253.097 313.926 249.93 316.543C247.974 318.155 243.895 322.011 241.194 324.237C238.493 326.463 236.145 323.92 237.077 322.747C241.212 317.512 242.172 314.066 242.665 311.235C242.767 310.738 243.041 310.293 243.438 309.977Z" fill="#263238"/>
<path d="M134.344 322.663L143.472 326.472C143.634 326.545 143.768 326.667 143.855 326.821C143.942 326.975 143.978 327.153 143.956 327.329L142.922 335.376C142.899 335.567 142.832 335.749 142.726 335.909C142.62 336.068 142.478 336.201 142.311 336.296C142.145 336.391 141.958 336.446 141.767 336.456C141.575 336.466 141.384 336.431 141.209 336.354C137.977 335.041 136.458 334.389 132.453 332.713L120.15 327.59C116.815 326.193 117.533 322.532 119.041 322.803C125.794 324.023 130.144 323.622 132.807 322.616C133.306 322.431 133.858 322.447 134.344 322.663Z" fill="#263238"/>
<path opacity="0.2" d="M140.063 307.444L137.408 316.609L145.4 320.223L148.278 310.322L140.063 307.444Z" fill="black"/>
<path opacity="0.2" d="M239.182 293.147L232.494 298.13L239.545 305.283L246.232 300.3L239.182 293.147Z" fill="black"/>
<path d="M196.003 155.329L162.165 155.813C157.508 129.622 156.437 117.114 156.437 111.106C156.433 109.608 156.95 108.154 157.9 106.995C158.85 105.836 160.173 105.044 161.644 104.754C163.711 104.353 166.3 103.888 168.862 103.534C169.747 103.413 170.641 103.301 171.516 103.208C176.624 102.765 181.757 102.69 186.875 102.984C187.639 102.984 188.393 103.05 189.148 103.096C192.575 103.32 195.798 103.757 198.061 104.111C198.478 104.178 198.877 104.328 199.234 104.555C199.591 104.781 199.897 105.077 200.136 105.426C200.374 105.775 200.538 106.169 200.618 106.583C200.699 106.998 200.694 107.424 200.604 107.837C199.616 112.494 198.806 116.583 198.154 120.243C197.12 126.064 196.468 130.768 196.086 134.894C195.513 141.692 195.485 148.526 196.003 155.329Z" fill="#407BFF"/>
<g opacity="0.5">
<path opacity="0.5" d="M196.003 155.329L162.165 155.813C157.508 129.622 156.437 117.114 156.437 111.106C156.433 109.608 156.95 108.154 157.9 106.995C158.85 105.836 160.173 105.044 161.644 104.754C163.711 104.353 166.3 103.888 168.862 103.534C169.747 103.413 170.641 103.301 171.516 103.208C176.624 102.765 181.757 102.69 186.875 102.984C187.639 102.984 188.393 103.05 189.148 103.096C192.575 103.32 195.798 103.757 198.061 104.111C198.478 104.178 198.877 104.328 199.234 104.555C199.591 104.781 199.897 105.077 200.136 105.426C200.374 105.775 200.538 106.169 200.618 106.583C200.699 106.998 200.694 107.424 200.604 107.837C199.616 112.494 198.806 116.583 198.154 120.243C197.12 126.064 196.468 130.768 196.086 134.894C195.513 141.692 195.485 148.526 196.003 155.329Z" fill="black"/>
</g>
<path opacity="0.3" d="M196.086 134.922C194.382 129.818 194.475 119.219 196.31 115.782L198.173 120.271C197.12 126.092 196.468 130.796 196.086 134.922Z" fill="black"/>
<path d="M184.351 92.5248C184.193 96.6788 184.686 100.991 186.884 103.022C186.884 103.022 183.252 107.762 174.702 112.419C170.175 108.06 171.516 103.245 171.516 103.245C177.011 101.848 177.105 98.1877 175.493 92.115L179.852 90.3454C180.253 89.9923 180.749 89.7653 181.278 89.6931C181.807 89.6209 182.346 89.7066 182.826 89.9394C183.307 90.1722 183.708 90.5418 183.979 91.0018C184.25 91.4618 184.38 91.9916 184.351 92.5248Z" fill="#FFB573"/>
<path opacity="0.2" d="M179.861 90.3453C180.237 90.0178 180.695 89.7999 181.186 89.7158C181.677 89.6316 182.181 89.6843 182.644 89.8681C183.107 90.0519 183.51 90.3597 183.81 90.7577C184.109 91.1557 184.293 91.6286 184.341 92.1243C182.419 95.0893 179.609 97.3712 176.313 98.644C176.45 96.4203 176.172 94.1903 175.493 92.0684L179.861 90.3453Z" fill="black"/>
<path d="M192.221 80.3235C189.278 88.054 188.188 91.3791 182.907 94.1826C175.018 98.3925 166.142 93.0836 166.757 84.6265C167.278 77.017 172.01 65.6633 180.728 64.9368C182.645 64.7651 184.575 65.087 186.333 65.8719C188.091 66.6568 189.618 67.8786 190.771 69.421C191.923 70.9634 192.661 72.7751 192.915 74.6835C193.169 76.5918 192.93 78.5335 192.221 80.3235Z" fill="#FFB573"/>
<path d="M177.421 64.8997C171.935 72.6396 187.667 70.7396 186.884 76.1975C186.428 79.5133 181.696 85.6884 190.004 86.8434C198.312 87.9983 200.371 74.4372 196.096 69.3425C191.821 64.2478 182.814 60.9413 177.421 64.8997Z" fill="#263238"/>
<path d="M179.163 64.6667C178.027 67.4609 171.982 71.2889 169.774 70.5811C170.445 67.2373 176.08 64.0613 179.163 64.6667Z" fill="#263238"/>
<path d="M191.718 88.2123C190.885 89.5778 189.546 90.5587 187.993 90.9413C185.925 91.4256 184.984 89.5628 185.627 87.6534C186.204 85.949 187.983 83.6298 190.014 83.9931C190.458 84.0788 190.874 84.2743 191.223 84.5618C191.572 84.8493 191.844 85.2197 192.013 85.6391C192.183 86.0586 192.245 86.5138 192.193 86.9633C192.141 87.4127 191.978 87.8421 191.718 88.2123Z" fill="#FFB573"/>
<path d="M162.165 155.813C162.165 155.813 156.437 205.065 151.156 235.727C147.021 259.747 136.57 309.763 136.57 309.763L150.131 314.569C150.131 314.569 165.667 262.411 168.387 240.169C179.34 208.074 187.21 155.543 187.21 155.543L162.165 155.813Z" fill="#407BFF"/>
<path d="M134.363 313.144L150.066 318.676L152.162 313.638L135.136 307.127L134.363 313.144Z" fill="#263238"/>
<path opacity="0.3" d="M179.312 170.445L174.245 180.16C172.382 187.48 172.829 205.307 175.176 216.568C179.396 199.588 182.767 181.724 184.863 169.737L179.312 170.445Z" fill="black"/>
<path d="M169.514 155.813C169.514 155.813 175.577 210.933 186.893 241.501C192.566 256.86 234.674 302.358 234.674 302.358L244.174 294.758C244.174 294.758 217.471 248.85 205.801 236.854C201.041 210.188 207.021 170.259 195.965 155.31L169.514 155.813Z" fill="#407BFF"/>
<path d="M235.484 305.656L246.624 296.519L243.615 291.582L231.414 302.2L235.484 305.656Z" fill="#263238"/>
<path d="M196.524 153.345L198.089 156.344C198.21 156.577 197.94 156.828 197.548 156.828L162.053 157.341C161.746 157.341 161.494 157.192 161.466 157.005L161.122 153.978C161.122 153.773 161.364 153.587 161.69 153.587L195.965 153.093C196.072 153.084 196.18 153.102 196.277 153.146C196.375 153.19 196.46 153.258 196.524 153.345Z" fill="#263238"/>
<path d="M191.932 157.238H192.864C193.041 157.238 193.18 157.136 193.171 157.024L192.677 153.093C192.677 152.972 192.51 152.888 192.323 152.888H191.392C191.215 152.888 191.075 152.991 191.094 153.103L191.578 157.033C191.588 157.145 191.755 157.238 191.932 157.238Z" fill="#407BFF"/>
<path d="M164.596 157.629H165.527C165.713 157.629 165.844 157.527 165.835 157.415L165.35 153.485C165.35 153.364 165.173 153.27 164.987 153.28H164.056C163.869 153.28 163.73 153.382 163.748 153.494L164.233 157.424C164.251 157.536 164.419 157.629 164.596 157.629Z" fill="#407BFF"/>
<path d="M178.269 157.406H179.2C179.387 157.406 179.526 157.303 179.508 157.191L179.023 153.261C179.023 153.14 178.846 153.047 178.669 153.056H177.738C177.552 153.056 177.421 153.159 177.431 153.27L177.915 157.201C177.896 157.34 178.083 157.406 178.269 157.406Z" fill="#407BFF"/>
<path d="M178.623 78.4328C178.427 79.0755 177.924 79.4853 177.505 79.3642C177.086 79.2431 176.909 78.6098 177.104 77.9671C177.3 77.3245 177.812 76.9053 178.231 77.0357C178.651 77.1661 178.828 77.7902 178.623 78.4328Z" fill="#263238"/>
<path d="M171.377 76.1602C171.172 76.8029 170.669 77.2127 170.25 77.0916C169.83 76.9705 169.653 76.3372 169.858 75.6945C170.063 75.0519 170.557 74.642 170.976 74.7631C171.395 74.8842 171.572 75.5175 171.377 76.1602Z" fill="#263238"/>
<path d="M171.153 74.8562L169.756 73.9248C169.756 73.9248 170.166 75.3778 171.153 74.8562Z" fill="#263238"/>
<path d="M173.165 77.8552C172.138 79.1416 170.937 80.2794 169.598 81.2362C169.852 81.5711 170.177 81.8469 170.548 82.0446C170.919 82.2424 171.329 82.3574 171.749 82.3818L173.165 77.8552Z" fill="#ED893E"/>
<path d="M173.891 85.9398C173.859 85.916 173.835 85.8822 173.823 85.8436C173.811 85.805 173.812 85.7635 173.826 85.7256C173.843 85.6757 173.879 85.6342 173.926 85.6099C173.973 85.5857 174.027 85.5804 174.078 85.5952C174.869 85.8637 175.713 85.9413 176.54 85.8215C177.367 85.7017 178.154 85.388 178.837 84.906C178.857 84.8895 178.881 84.8771 178.905 84.8695C178.93 84.862 178.957 84.8595 178.983 84.8621C179.009 84.8647 179.034 84.8723 179.057 84.8847C179.08 84.897 179.1 84.9137 179.117 84.9339C179.133 84.9541 179.145 84.9773 179.153 85.0023C179.16 85.0272 179.163 85.0535 179.16 85.0794C179.158 85.1053 179.15 85.1305 179.138 85.1535C179.125 85.1765 179.109 85.1968 179.089 85.2133C178.356 85.7411 177.508 86.0858 176.615 86.2187C175.723 86.3516 174.811 86.2687 173.957 85.9771L173.891 85.9398Z" fill="#263238"/>
<path d="M181.407 76.7003C181.354 76.6551 181.312 76.5976 181.286 76.5326C181.135 76.0618 180.873 75.6339 180.523 75.2841C180.173 74.9343 179.745 74.6727 179.275 74.5208C179.173 74.4964 179.084 74.433 179.029 74.3442C178.973 74.2554 178.954 74.1482 178.977 74.0458C179.001 73.9438 179.064 73.8555 179.153 73.7998C179.242 73.7441 179.349 73.7254 179.452 73.7478C180.051 73.9309 180.598 74.2547 181.047 74.6921C181.495 75.1296 181.833 75.668 182.031 76.2625C182.068 76.3614 182.064 76.4706 182.02 76.5664C181.977 76.6623 181.897 76.7372 181.799 76.7748C181.732 76.7958 181.662 76.8 181.594 76.787C181.525 76.774 181.461 76.7442 181.407 76.7003Z" fill="#263238"/>
<path d="M169.216 71.9968C169.216 71.9968 169.216 71.9502 169.216 71.9316C169.206 71.8808 169.207 71.8287 169.218 71.7782C169.229 71.7277 169.249 71.6798 169.279 71.6374C169.308 71.595 169.346 71.5588 169.389 71.531C169.433 71.5031 169.481 71.4842 169.532 71.4752C170.147 71.3501 170.782 71.3744 171.385 71.5462C171.988 71.7181 172.541 72.0323 172.997 72.4625C173.034 72.4989 173.064 72.5424 173.084 72.5904C173.104 72.6383 173.114 72.6899 173.114 72.7419C173.114 72.7939 173.104 72.8455 173.084 72.8934C173.064 72.9414 173.034 72.9849 172.997 73.0213C172.922 73.0941 172.822 73.1349 172.718 73.1349C172.613 73.1349 172.513 73.0941 172.438 73.0213C172.068 72.6799 171.62 72.433 171.133 72.3017C170.647 72.1703 170.136 72.1584 169.644 72.2669C169.552 72.28 169.459 72.26 169.38 72.2105C169.302 72.1611 169.243 72.0853 169.216 71.9968Z" fill="#263238"/>
<path d="M137.083 108.787C135.704 106.561 134.512 102.211 136.868 99.7524C139.225 97.2935 141.06 96.595 140.473 92.3012C139.886 88.0075 146.443 88.1286 146.993 84.8501C150.262 87.6443 153.727 94.164 151.873 97.1538C150.02 100.144 151.016 102.388 150.616 106.011C150.215 109.634 142.298 117.225 137.083 108.787Z" fill="#407BFF"/>
<path opacity="0.5" d="M137.083 108.787C135.704 106.561 134.512 102.211 136.868 99.7524C139.225 97.2935 141.06 96.595 140.473 92.3012C139.886 88.0075 146.443 88.1286 146.993 84.8501C150.262 87.6443 153.727 94.164 151.873 97.1538C150.02 100.144 151.016 102.388 150.616 106.011C150.215 109.634 142.298 117.225 137.083 108.787Z" fill="white"/>
<path d="M147.263 91.7517C145.679 101.699 142.764 113.313 138.582 121.947C139.599 121.865 140.553 121.422 141.274 120.699C141.274 120.699 147.896 102.714 147.263 91.7517Z" fill="#407BFF"/>
<path d="M133.944 113.677C131.848 112.112 129.147 108.507 130.423 105.35C131.699 102.193 133.161 100.87 131.028 97.0886C128.895 93.3071 135.052 90.9973 134.353 87.7747C138.442 89.209 144.059 93.987 143.416 97.4146C142.773 100.842 144.543 102.602 145.502 106.114C146.462 109.625 141.907 119.6 133.944 113.677Z" fill="#407BFF"/>
<path opacity="0.6" d="M133.944 113.677C131.848 112.112 129.147 108.507 130.423 105.35C131.699 102.193 133.161 100.87 131.028 97.0886C128.895 93.3071 135.052 90.9973 134.353 87.7747C138.442 89.209 144.059 93.987 143.416 97.4146C142.773 100.842 144.543 102.602 145.502 106.114C146.462 109.625 141.907 119.6 133.944 113.677Z" fill="white"/>
<path d="M148.911 116.676C151.109 116.517 154.677 115.186 155.207 112.354C155.738 109.523 155.301 107.921 158.542 106.198C161.783 104.475 158.449 100.041 160.405 98.0666C156.847 97.2283 150.681 98.0666 149.563 100.805C148.446 103.543 146.406 103.972 144.124 106.039C141.842 108.107 140.547 117.272 148.911 116.676Z" fill="#407BFF"/>
<path opacity="0.7" d="M148.911 116.676C151.109 116.517 154.677 115.186 155.207 112.354C155.738 109.523 155.301 107.921 158.542 106.198C161.783 104.475 158.449 100.041 160.405 98.0666C156.847 97.2283 150.681 98.0666 149.563 100.805C148.446 103.543 146.406 103.972 144.124 106.039C141.842 108.107 140.547 117.272 148.911 116.676Z" fill="white"/>
<path d="M136.663 98.1597C138.33 106.868 139.131 117.235 137.594 125.319C138.588 125.121 139.473 124.564 140.081 123.754C140.081 123.754 141.059 107.315 136.663 98.1597Z" fill="#407BFF"/>
<path d="M154.071 102.919C148.24 109.309 142.009 117.477 138.461 124.909C137.974 124.181 137.759 123.303 137.855 122.432C137.855 122.432 146.378 108.359 154.071 102.919Z" fill="#407BFF"/>
<path d="M127.768 111.655C125.133 110.212 119.926 114.245 122.664 118.93C125.403 123.615 131.047 125.785 133.655 123.27C137.25 122.627 138.815 116.815 136.654 111.842C134.493 106.868 128.169 108.675 127.768 111.655Z" fill="#407BFF"/>
<path d="M127.768 111.656C127.768 111.656 126.837 108.629 128.374 107.66C128.582 107.922 128.775 108.195 128.951 108.48C128.951 108.48 127.908 108.768 127.768 111.656Z" fill="#263238"/>
<path d="M157.564 103.757C157.247 110.156 150.671 115.018 143.528 116.583C143.088 117.034 142.768 117.588 142.596 118.194C142.536 118.333 142.526 118.488 142.566 118.634C142.607 118.78 142.696 118.907 142.82 118.995C143.361 119.444 143.999 119.762 144.683 119.926C148.456 120.018 152.135 118.741 155.04 116.331C158.765 113.481 162.165 107.837 161.094 105.22C160.023 102.602 159.175 103.478 158.765 101.494C158.538 100.689 158.44 99.8525 158.476 99.0166C158.476 99.0166 157.545 99.4544 157.312 100.023C157.62 100.824 157.666 101.671 157.564 103.757Z" fill="#407BFF"/>
<path opacity="0.2" d="M161.131 105.248C160.887 104.545 160.486 103.908 159.957 103.385C160.032 105.49 159.492 108.042 157.163 111.767C154.732 115.661 148.213 119.125 142.587 118.781C142.632 118.871 142.699 118.948 142.783 119.004C143.324 119.453 143.961 119.772 144.645 119.936C148.419 120.028 152.098 118.751 155.002 116.34C158.737 113.518 162.165 107.874 161.131 105.248Z" fill="black"/>
<path d="M157.582 101.336C157.446 100.856 157.284 100.383 157.098 99.92C157.48 99.4257 157.998 99.0535 158.588 98.8489V100.386C158.588 100.386 158.076 101.27 157.582 101.336Z" fill="#263238"/>
<path d="M142.82 117.561C142.677 117.717 142.544 117.882 142.42 118.054C142.356 118.239 142.352 118.44 142.409 118.627C142.466 118.814 142.581 118.979 142.736 119.097C142.794 119.158 142.863 119.206 142.94 119.24C143.017 119.274 143.1 119.292 143.183 119.293C143.001 119.007 142.869 118.692 142.792 118.362C142.785 118.094 142.795 117.827 142.82 117.561Z" fill="#263238"/>
<path d="M162.686 106.645C161.038 112.829 153.596 116.21 146.275 116.247C145.74 116.588 145.301 117.059 144.999 117.617C144.904 117.735 144.852 117.883 144.852 118.036C144.852 118.188 144.904 118.336 144.999 118.455C145.44 119.028 146.012 119.488 146.666 119.796C147.411 119.992 151.817 121.212 157.545 118.455C161.746 116.424 166.282 111.628 165.788 108.852C165.294 106.077 164.27 106.747 164.288 104.735C164.225 103.902 164.304 103.065 164.521 102.258C164.012 102.369 163.544 102.621 163.171 102.984C163.348 103.776 163.217 104.624 162.686 106.645Z" fill="#407BFF"/>
<path opacity="0.2" d="M165.835 108.852C165.745 108.108 165.487 107.395 165.08 106.766C164.708 108.843 163.646 111.255 160.619 114.375C157.433 117.672 150.374 119.712 144.906 118.194C144.932 118.291 144.979 118.38 145.046 118.455C145.49 119.025 146.061 119.484 146.713 119.796C147.458 119.992 151.864 121.202 157.592 118.446C161.792 116.424 166.328 111.628 165.835 108.852Z" fill="black"/>
<path d="M163.208 104.316C163.208 104.316 163.124 103.226 163.031 102.835C163.509 102.436 164.09 102.18 164.708 102.099L164.372 103.599C164.372 103.599 163.702 104.316 163.208 104.316Z" fill="#263238"/>
<path d="M145.381 117.058C145.381 117.058 145.055 117.3 144.888 117.458C144.788 117.625 144.744 117.82 144.761 118.013C144.777 118.207 144.854 118.391 144.981 118.539C145.204 118.818 145.381 118.827 145.381 118.827C145.261 118.511 145.195 118.178 145.186 117.84C145.242 117.523 145.381 117.058 145.381 117.058Z" fill="#263238"/>
<path d="M167.01 113.579L121.547 119.823L128.536 170.712L173.999 164.468L167.01 113.579Z" fill="#407BFF"/>
<path opacity="0.8" d="M167.01 113.579L121.547 119.823L128.536 170.712L173.999 164.468L167.01 113.579Z" fill="white"/>
<path opacity="0.2" d="M167.01 113.583L153.594 115.426L160.583 166.314L173.999 164.472L167.01 113.583Z" fill="#407BFF"/>
<path opacity="0.2" d="M174.012 164.466L166.626 160.498L160.312 114.506L167.018 113.583L174.012 164.466Z" fill="#407BFF"/>
<path opacity="0.3" d="M166.626 160.498L160.591 166.31L174.012 164.466L166.626 160.498Z" fill="#407BFF"/>
<path d="M181.342 157.331L174.413 154.612L175.093 163.292C175.093 163.292 179.749 163.069 182.218 160.638L181.342 157.331Z" fill="#FFB573"/>
<path d="M203.202 114.068C205.065 119.284 206.667 124.462 208.045 129.827C208.734 132.5 209.386 135.192 209.908 137.986C210.16 139.374 210.383 140.78 210.551 142.252C210.735 143.797 210.801 145.354 210.746 146.909C210.715 147.918 210.558 148.919 210.281 149.889C209.902 151.084 209.266 152.181 208.418 153.103C207.176 154.428 205.702 155.514 204.068 156.307C201.397 157.606 198.584 158.59 195.686 159.24C190.264 160.499 184.734 161.238 179.172 161.448L178.632 157.089C181.165 156.484 183.764 155.813 186.288 155.105C188.812 154.397 191.327 153.615 193.739 152.73C196.041 151.942 198.259 150.928 200.361 149.703C201.126 149.256 201.809 148.683 202.382 148.008C202.531 147.775 202.531 147.71 202.503 147.71C202.527 147.369 202.527 147.026 202.503 146.685C202.462 145.561 202.343 144.441 202.15 143.332C201.963 142.121 201.712 140.883 201.432 139.607C200.846 137.12 200.203 134.586 199.476 132.053C198.023 127.024 196.394 121.91 194.754 116.946L203.202 114.068Z" fill="#FFB573"/>
<path d="M167.986 158.896L168.526 160.908C168.698 161.547 169.072 162.113 169.593 162.523C170.113 162.932 170.751 163.163 171.413 163.18L175.139 163.283L174.459 154.602L170.659 155.04C170.215 155.084 169.786 155.225 169.402 155.451C169.017 155.677 168.687 155.984 168.433 156.351C168.178 156.718 168.007 157.135 167.93 157.574C167.853 158.014 167.872 158.465 167.986 158.896Z" fill="#FFB573"/>
<path d="M199.253 104.363C203.146 105.946 206.332 118.744 206.332 118.744L195.574 127.126C195.574 127.126 187.955 115.195 189.511 110.016C190.833 105.648 194.298 102.36 199.253 104.363Z" fill="#407BFF"/>
<g opacity="0.5">
<path opacity="0.5" d="M199.253 104.363C203.146 105.946 206.332 118.744 206.332 118.744L195.574 127.126C195.574 127.126 187.955 115.195 189.511 110.016C190.833 105.648 194.298 102.36 199.253 104.363Z" fill="black"/>
</g>
<path d="M240.803 313.591H240.663C240.468 313.58 240.28 313.518 240.117 313.412C239.953 313.306 239.821 313.159 239.732 312.986C239.663 312.887 239.622 312.773 239.612 312.653C239.602 312.534 239.624 312.414 239.676 312.306C240.151 311.374 243.14 311.002 243.476 310.965C243.515 310.959 243.555 310.965 243.59 310.984C243.626 311.002 243.654 311.031 243.671 311.067C243.692 311.099 243.703 311.136 243.703 311.174C243.703 311.212 243.692 311.249 243.671 311.281C243.038 312.129 241.827 313.517 240.803 313.591ZM243.066 311.421C241.874 311.598 240.272 311.98 240.048 312.483C240.02 312.527 240.005 312.579 240.005 312.632C240.005 312.684 240.02 312.736 240.048 312.781C240.102 312.898 240.187 312.998 240.294 313.07C240.401 313.142 240.525 313.184 240.654 313.191C241.231 313.219 242.162 312.567 243.094 311.421H243.066Z" fill="#263238"/>
<path d="M243.336 311.384C242.321 311.449 240.309 311.03 239.88 310.247C239.807 310.108 239.784 309.948 239.815 309.794C239.845 309.64 239.928 309.501 240.048 309.4C240.151 309.29 240.277 309.203 240.417 309.147C240.557 309.091 240.708 309.066 240.858 309.074C242.069 309.074 243.606 310.937 243.652 311.039C243.671 311.067 243.681 311.099 243.681 311.132C243.681 311.165 243.671 311.198 243.652 311.225C243.643 311.259 243.624 311.29 243.598 311.313C243.571 311.337 243.538 311.351 243.503 311.356L243.336 311.384ZM240.765 309.465C240.602 309.479 240.45 309.552 240.337 309.67C240.16 309.856 240.188 309.977 240.234 310.061C240.504 310.573 242.097 310.992 243.112 310.992C242.563 310.406 241.566 309.484 240.849 309.456L240.765 309.465Z" fill="#263238"/>
<path d="M129.669 322.477C129.032 322.264 128.473 321.865 128.067 321.331C127.971 321.171 127.913 320.992 127.897 320.806C127.881 320.621 127.907 320.434 127.973 320.26C128.004 320.16 128.061 320.071 128.138 320C128.215 319.93 128.309 319.881 128.411 319.859C129.473 319.655 131.988 322.356 132.481 322.905C132.504 322.938 132.516 322.977 132.516 323.017C132.516 323.057 132.504 323.096 132.481 323.129C132.461 323.166 132.429 323.196 132.391 323.214C132.352 323.232 132.309 323.238 132.267 323.231C131.378 323.066 130.508 322.813 129.669 322.477ZM128.877 320.297C128.756 320.237 128.62 320.211 128.486 320.223C128.486 320.223 128.383 320.223 128.346 320.362C128.298 320.483 128.28 320.613 128.291 320.743C128.302 320.872 128.343 320.997 128.411 321.108C128.774 321.732 130.013 322.318 131.774 322.7C130.935 321.757 129.959 320.947 128.877 320.297Z" fill="#263238"/>
<path d="M132.258 323.194C132.232 323.184 132.21 323.168 132.192 323.147C131.335 322.3 129.957 319.766 130.432 318.956C130.544 318.779 130.767 318.593 131.261 318.732C133.124 319.272 132.556 322.886 132.528 323.045C132.523 323.081 132.506 323.115 132.481 323.141C132.456 323.168 132.424 323.186 132.388 323.194C132.367 323.203 132.345 323.208 132.323 323.208C132.3 323.208 132.278 323.203 132.258 323.194ZM131.326 319.151H131.196C131 319.096 130.87 319.105 130.823 319.151C130.544 319.626 131.429 321.536 132.239 322.551C132.258 321.657 132.369 319.608 131.326 319.151Z" fill="#263238"/>
<path d="M178.408 77.1289L177.002 76.1975C177.002 76.1975 177.421 77.6505 178.408 77.1289Z" fill="#263238"/>
</svg>
