<svg width="462" height="344" viewBox="0 0 462 344" fill="none" xmlns="http://www.w3.org/2000/svg">
<path d="M461.671 302.302H0V302.533H461.671V302.302Z" fill="#E0E0E0"/>
<path d="M396.779 314.361H370.565V314.592H396.779V314.361Z" fill="#E0E0E0"/>
<path d="M363.796 314.472H340.371V314.703H363.796V314.472Z" fill="#E0E0E0"/>
<path d="M255.414 309.126H223.882V309.356H255.414V309.126Z" fill="#E0E0E0"/>
<path d="M314.877 316.281H271.056V316.512H314.877V316.281Z" fill="#E0E0E0"/>
<path d="M131.89 308.858H89.4624V309.089H131.89V308.858Z" fill="#E0E0E0"/>
<path d="M151.428 308.858H137.015V309.089H151.428V308.858Z" fill="#E0E0E0"/>
<path d="M94.7994 313.013H57.6719V313.244H94.7994V313.013Z" fill="#E0E0E0"/>
<path d="M218.832 261.121H40.5438C39.1471 261.118 37.8085 260.562 36.8217 259.573C35.835 258.585 35.2808 257.245 35.2808 255.849V5.22611C35.2929 3.83743 35.8525 2.50962 36.8379 1.5311C37.8234 0.552581 39.1551 0.00237889 40.5438 0H218.832C220.23 0 221.571 0.555471 222.56 1.54421C223.549 2.53296 224.104 3.87398 224.104 5.27228V255.849C224.104 257.247 223.549 258.588 222.56 259.577C221.571 260.565 220.23 261.121 218.832 261.121ZM40.5438 0.184669C39.2083 0.187115 37.9284 0.719343 36.9849 1.66453C36.0415 2.60972 35.5116 3.89064 35.5116 5.22611V255.849C35.5116 257.184 36.0415 258.465 36.9849 259.41C37.9284 260.355 39.2083 260.888 40.5438 260.89H218.832C220.168 260.888 221.449 260.356 222.394 259.411C223.339 258.466 223.871 257.185 223.873 255.849V5.22611C223.871 3.88979 223.339 2.60889 222.394 1.66397C221.449 0.719043 220.168 0.18711 218.832 0.184669H40.5438Z" fill="#E0E0E0"/>
<path d="M418.56 261.121H240.263C238.865 261.118 237.525 260.562 236.537 259.574C235.549 258.586 234.993 257.246 234.99 255.849V5.22611C235.005 3.83659 235.566 2.50879 236.553 1.53052C237.54 0.552258 238.873 0.00235294 240.263 0H418.56C419.947 0.00480553 421.276 0.556082 422.26 1.53434C423.243 2.5126 423.801 3.83902 423.814 5.22611V255.849C423.814 257.244 423.261 258.582 422.276 259.57C421.291 260.558 419.955 261.116 418.56 261.121ZM240.263 0.184669C238.926 0.18711 237.645 0.719043 236.7 1.66397C235.755 2.60889 235.224 3.88979 235.221 5.22611V255.849C235.224 257.185 235.755 258.466 236.7 259.411C237.645 260.356 238.926 260.888 240.263 260.89H418.56C419.896 260.888 421.177 260.356 422.122 259.411C423.067 258.466 423.599 257.185 423.601 255.849V5.22611C423.599 3.88979 423.067 2.60889 422.122 1.66397C421.177 0.719043 419.896 0.18711 418.56 0.184669H240.263Z" fill="#E0E0E0"/>
<path d="M303.188 22.4095H65.8896V142.038H303.188V22.4095Z" fill="#E0E0E0"/>
<path d="M306.281 22.4095H68.9824V142.038H306.281V22.4095Z" fill="#F0F0F0"/>
<path d="M300.732 136.414V28.0142L74.5415 28.0142V136.414H300.732Z" fill="#F5F5F5"/>
<path d="M91.291 136.424L152.638 28.0234H181.381L120.044 136.424H91.291Z" fill="white"/>
<path d="M129.692 136.424L191.039 28.0234H219.783L158.445 136.424H129.692Z" fill="white"/>
<path d="M209.599 136.424L270.936 28.0234H282.773L221.436 136.424H209.599Z" fill="white"/>
<path d="M227.096 136.414V28.0142H218.73V136.414H227.096Z" fill="#E0E0E0"/>
<path d="M150.366 136.414V28.0142H142V136.414H150.366Z" fill="#E0E0E0"/>
<path d="M230.032 139.988V23.85H221.667V139.988H230.032Z" fill="#F5F5F5"/>
<path d="M153.302 139.988V23.85H144.937V139.988H153.302Z" fill="#F5F5F5"/>
<path d="M300.732 136.414V28.0142H298.396V136.414H300.732Z" fill="#E0E0E0"/>
<path d="M361.802 177.355C361.802 177.355 344.868 148.169 368.358 124.937C368.358 124.937 374.489 128.926 374.396 134.3C374.304 139.674 367.832 141.031 369.217 145.519C370.602 150.006 376.723 154.401 372.716 158.104C368.709 161.806 373.353 165.112 373.085 169.646C372.818 174.179 361.802 177.355 361.802 177.355Z" fill="#E0E0E0"/>
<path d="M364.461 182.129C364.461 182.129 371.322 149.092 341.701 134.448C341.701 134.448 337.149 140.172 338.931 145.242C340.713 150.311 347.287 149.563 347.379 154.253C347.472 158.944 343.058 165.047 348.035 167.3C353.012 169.553 349.632 174.151 351.322 178.38C353.012 182.609 364.461 182.129 364.461 182.129Z" fill="#EBEBEB"/>
<path d="M349.383 173.736C349.383 173.736 349.679 187.512 361.073 187.512C372.467 187.512 372.772 173.736 372.772 173.736H349.383Z" fill="#F5F5F5"/>
<path d="M270.317 176.783C270.317 176.783 270.705 187.512 285.691 187.512C300.677 187.512 301.074 176.783 301.074 176.783H270.317Z" fill="#EBEBEB"/>
<path d="M305.1 179.442C305.1 179.442 305.396 187.512 316.66 187.512C327.925 187.512 328.211 179.442 328.211 179.442H305.1Z" fill="#EBEBEB"/>
<path d="M280.872 194.206H255.646V295.377H280.872V194.206Z" fill="#EBEBEB"/>
<path d="M384.876 295.368H260.484V302.302H384.876V295.368Z" fill="#EBEBEB"/>
<path d="M280.871 295.368H389.724V194.197H280.871V295.368Z" fill="#F5F5F5"/>
<path d="M290.788 239.866H379.808V203.985H290.788V239.866Z" fill="#EBEBEB"/>
<path d="M290.788 282.284H379.808V246.403H290.788V282.284Z" fill="#EBEBEB"/>
<path d="M345.33 207.918H325.303C324.65 207.918 324.025 207.66 323.563 207.199C323.101 206.739 322.84 206.114 322.837 205.462C322.84 204.809 323.1 204.183 323.562 203.721C324.024 203.26 324.65 202.999 325.303 202.997H345.33C345.983 202.999 346.609 203.26 347.071 203.721C347.532 204.183 347.793 204.809 347.795 205.462C347.793 206.114 347.532 206.739 347.07 207.199C346.608 207.66 345.982 207.918 345.33 207.918Z" fill="#F5F5F5"/>
<path d="M345.33 250.336H325.303C324.65 250.336 324.025 250.078 323.563 249.618C323.101 249.157 322.84 248.532 322.837 247.88C322.84 247.227 323.1 246.601 323.562 246.14C324.024 245.678 324.65 245.417 325.303 245.415H345.33C345.983 245.417 346.609 245.678 347.071 246.14C347.532 246.601 347.793 247.227 347.795 247.88C347.793 248.532 347.532 249.157 347.07 249.618C346.608 250.078 345.982 250.336 345.33 250.336Z" fill="#F5F5F5"/>
<path d="M393.075 187.512H280.862V194.206H393.075V187.512Z" fill="#EBEBEB"/>
<path d="M252.109 194.197H280.862V187.503H252.109V194.197Z" fill="#E0E0E0"/>
<path d="M387.452 39.2512H332.809V102.205H387.452V39.2512Z" fill="#EBEBEB"/>
<path d="M393.657 39.2512H334.443V102.205H393.657V39.2512Z" fill="#F5F5F5"/>
<path d="M388.699 97.2371V44.2096H339.402V97.2371H388.699Z" fill="white"/>
<path d="M376.751 80.0352V61.4114C376.751 59.0096 374.804 57.0625 372.402 57.0625H355.699C353.297 57.0625 351.35 59.0096 351.35 61.4114V80.0352C351.35 82.4371 353.297 84.3842 355.699 84.3842H372.402C374.804 84.3842 376.751 82.4371 376.751 80.0352Z" fill="#F5F5F5"/>
<path d="M248.462 243.688H242.119V302.302H248.462V243.688Z" fill="#E0E0E0"/>
<path opacity="0.5" d="M248.462 243.688H245.286V302.302H248.462V243.688Z" fill="#F5F5F5"/>
<path d="M220.678 260.105H216.32C216.798 259.701 217.181 259.197 217.444 258.63C217.707 258.062 217.844 257.444 217.844 256.818H166.201C166.203 257.444 166.342 258.063 166.606 258.63C166.871 259.198 167.256 259.701 167.734 260.105H163.431C161.889 260.105 160.409 260.718 159.318 261.809C158.227 262.9 157.614 264.38 157.614 265.922V282.884C157.614 284.427 158.227 285.907 159.318 286.997C160.409 288.088 161.889 288.701 163.431 288.701H220.678C222.221 288.701 223.701 288.088 224.792 286.997C225.883 285.907 226.496 284.427 226.496 282.884V265.922C226.496 264.38 225.883 262.9 224.792 261.809C223.701 260.718 222.221 260.105 220.678 260.105Z" fill="#F5F5F5"/>
<path d="M172.914 272.635H138.187C136.025 272.635 134.272 274.388 134.272 276.55V284.786C134.272 286.948 136.025 288.701 138.187 288.701H172.914C175.076 288.701 176.829 286.948 176.829 284.786V276.55C176.829 274.388 175.076 272.635 172.914 272.635Z" fill="#EBEBEB"/>
<path d="M175.518 269.089H135.583C134.859 269.089 134.272 269.676 134.272 270.401V271.896C134.272 272.62 134.859 273.207 135.583 273.207H175.518C176.242 273.207 176.829 272.62 176.829 271.896V270.401C176.829 269.676 176.242 269.089 175.518 269.089Z" fill="#E0E0E0"/>
<path d="M180.753 217.512C180.753 217.512 181.353 236.902 204.067 236.902C226.782 236.902 227.382 217.512 227.382 217.512H180.753Z" fill="#EBEBEB"/>
<path d="M71.1987 243.688H99.5269V236.911H71.1987V243.688Z" fill="#E0E0E0"/>
<path d="M270.447 236.911H99.5361V243.688H270.447V236.911Z" fill="#F5F5F5"/>
<path d="M71.1987 295.478H99.5269V288.701H71.1987V295.478Z" fill="#E0E0E0"/>
<path d="M77.5514 243.688H71.208V302.302H77.5514V243.688Z" fill="#E0E0E0"/>
<path opacity="0.5" d="M77.5513 243.688H74.375V302.302H77.5513V243.688Z" fill="#F5F5F5"/>
<path d="M102.703 243.688H96.3599V302.302H102.703V243.688Z" fill="#F5F5F5"/>
<path d="M99.5362 243.688H96.3599V302.302H99.5362V243.688Z" fill="#E0E0E0"/>
<path d="M270.438 243.688H264.094V302.302H270.438V243.688Z" fill="#F5F5F5"/>
<path d="M267.271 243.688H264.094V302.302H267.271V243.688Z" fill="#E0E0E0"/>
<path d="M270.447 288.701H99.5361V295.478H270.447V288.701Z" fill="#F5F5F5"/>
<path d="M145.112 232.913H110.653V236.911H145.112V232.913Z" fill="#E0E0E0"/>
<path d="M145.112 236.902H157.458V232.904H145.112V236.902Z" fill="#EBEBEB"/>
<path d="M230.835 344C329.709 344 409.862 339.32 409.862 333.548C409.862 327.775 329.709 323.096 230.835 323.096C131.962 323.096 51.8086 327.775 51.8086 333.548C51.8086 339.32 131.962 344 230.835 344Z" fill="#F5F5F5"/>
<path d="M201.168 88.3638C201.232 99.3054 193.393 99.1946 193.55 95.7967C193.707 92.3988 191.768 84.2642 193.55 85.049C195.332 85.8338 201.14 83.5255 201.168 88.3638Z" fill="#263238"/>
<path d="M196.237 108.179C197.318 108.096 199.488 109.102 199.681 111.955C199.732 112.784 199.974 113.59 200.389 114.309C200.804 115.029 201.381 115.642 202.073 116.101C202.073 116.101 198.481 116.535 196.127 114.67C194.206 113.165 193.357 109.868 194.363 109.13C194.915 108.685 195.553 108.361 196.237 108.179Z" fill="#263238"/>
<path d="M194.825 100.404C196.672 102.038 198.361 106.36 194.197 108.41C190.033 110.459 183.486 105.686 183.486 105.686L190.679 102.352L194.825 100.404Z" fill="#263238"/>
<path d="M196.875 108.576C196.773 107.977 196.606 107.392 196.376 106.831C196.356 106.777 196.325 106.729 196.284 106.689C196.243 106.65 196.193 106.62 196.139 106.602C196.085 106.585 196.028 106.579 195.971 106.587C195.915 106.594 195.861 106.615 195.813 106.646L193.255 108.354C193.204 108.389 193.162 108.435 193.133 108.49C193.104 108.545 193.088 108.606 193.088 108.668C193.088 108.73 193.104 108.791 193.133 108.846C193.162 108.901 193.204 108.947 193.255 108.982C193.623 109.252 194.02 109.481 194.437 109.665C195.037 109.905 196.284 109.222 196.709 108.927C196.767 108.89 196.814 108.838 196.843 108.775C196.873 108.713 196.884 108.644 196.875 108.576Z" fill="#407BFF"/>
<path opacity="0.3" d="M196.875 108.576C196.773 107.977 196.606 107.392 196.376 106.831C196.356 106.777 196.325 106.729 196.284 106.689C196.243 106.65 196.193 106.62 196.139 106.602C196.085 106.585 196.028 106.579 195.971 106.587C195.915 106.594 195.861 106.615 195.813 106.646L193.255 108.354C193.204 108.389 193.162 108.435 193.133 108.49C193.104 108.545 193.088 108.606 193.088 108.668C193.088 108.73 193.104 108.791 193.133 108.846C193.162 108.901 193.204 108.947 193.255 108.982C193.623 109.252 194.02 109.481 194.437 109.665C195.037 109.905 196.284 109.222 196.709 108.927C196.767 108.89 196.814 108.838 196.843 108.775C196.873 108.713 196.884 108.644 196.875 108.576Z" fill="black"/>
<path d="M169.35 104.042C168.325 103.7 165.98 104.162 165.112 106.895C164.865 107.688 164.438 108.413 163.865 109.014C163.292 109.615 162.587 110.075 161.806 110.358C161.806 110.358 165.195 111.632 167.928 110.358C170.144 109.351 171.714 106.341 170.947 105.381C170.518 104.825 169.973 104.368 169.35 104.042Z" fill="#263238"/>
<path d="M179.525 85.2521C175.785 86.2678 170.753 90.6998 172.988 96.1383C170.781 97.6433 167.956 101.974 171.261 104.744C174.816 107.726 183.56 103.543 183.56 103.543L183.625 102.122L184.668 91.54L179.525 85.2521Z" fill="#263238"/>
<path d="M168.639 104.282C168.887 103.723 169.197 103.194 169.563 102.703C169.599 102.659 169.645 102.623 169.697 102.598C169.748 102.574 169.805 102.561 169.863 102.561C169.92 102.561 169.977 102.574 170.029 102.598C170.081 102.623 170.126 102.659 170.163 102.703L172.231 104.965C172.273 105.011 172.303 105.067 172.319 105.127C172.335 105.187 172.336 105.25 172.322 105.311C172.309 105.371 172.281 105.428 172.241 105.475C172.201 105.523 172.15 105.56 172.092 105.584C171.673 105.755 171.237 105.882 170.791 105.963C170.144 106.055 169.147 105.104 168.759 104.716C168.697 104.665 168.651 104.596 168.63 104.518C168.608 104.441 168.612 104.358 168.639 104.282Z" fill="#407BFF"/>
<path opacity="0.3" d="M168.639 104.282C168.887 103.723 169.197 103.194 169.563 102.703C169.599 102.659 169.645 102.623 169.697 102.598C169.748 102.574 169.805 102.561 169.863 102.561C169.92 102.561 169.977 102.574 170.029 102.598C170.081 102.623 170.126 102.659 170.163 102.703L172.231 104.965C172.273 105.011 172.303 105.067 172.319 105.127C172.335 105.187 172.336 105.25 172.322 105.311C172.309 105.371 172.281 105.428 172.241 105.475C172.201 105.523 172.15 105.56 172.092 105.584C171.673 105.755 171.237 105.882 170.791 105.963C170.144 106.055 169.147 105.104 168.759 104.716C168.697 104.665 168.651 104.596 168.63 104.518C168.608 104.441 168.612 104.358 168.639 104.282Z" fill="black"/>
<path d="M202.286 123.792C204.049 125.159 205.979 126.618 207.918 127.947C209.857 129.277 211.805 130.616 213.809 131.844C215.813 133.072 217.844 134.217 219.894 135.306L221.436 136.091L223.005 136.821C223.522 137.07 224.049 137.292 224.584 137.495L225.369 137.818C225.637 137.919 225.923 138.049 226.089 138.095C227.054 138.391 228.043 138.604 229.044 138.732C230.134 138.889 231.279 139 232.442 139.083C234.76 139.231 237.142 139.295 239.533 139.304C241.925 139.314 244.344 139.304 246.754 139.231C249.164 139.157 251.601 139.101 254.002 139.027L254.454 142.656C249.605 143.634 244.708 144.359 239.783 144.826C237.299 145.048 234.806 145.214 232.257 145.232C230.983 145.232 229.69 145.232 228.361 145.112C226.931 145.028 225.514 144.796 224.132 144.42C223.707 144.309 223.439 144.198 223.125 144.097L222.202 143.773C221.583 143.57 220.974 143.349 220.355 143.099L218.564 142.379L216.81 141.604C214.492 140.558 212.232 139.387 210.042 138.095C207.863 136.811 205.72 135.482 203.652 134.06C201.584 132.638 199.589 131.17 197.558 129.443L202.286 123.792Z" fill="#E4897B"/>
<path d="M192.701 119.647C195 117.855 204.464 123.719 207.345 126.165L205.249 138.843C205.249 138.843 191.63 133.137 190.808 129.24C189.959 125.168 190.965 121.013 192.701 119.647Z" fill="#263238"/>
<path d="M252.995 139.342L258.702 134.919L259.154 141.761C259.154 141.761 255.221 144.198 252.626 142.684L252.995 139.342Z" fill="#E4897B"/>
<path d="M263.79 134.245L266.707 137.495L259.117 141.761L258.665 134.919L263.79 134.245Z" fill="#E4897B"/>
<path d="M155.38 324.527L162.573 325.062L165.195 308.507L158.011 307.971L155.38 324.527Z" fill="#E4897B"/>
<path d="M104.494 301.388L110.597 305.229L121.465 292.339L115.362 288.489L104.494 301.388Z" fill="#E4897B"/>
<path d="M112.528 303.853L106.812 298.101C106.714 298.001 106.583 297.94 106.444 297.93C106.305 297.919 106.166 297.961 106.055 298.045L100.857 301.933C100.73 302.035 100.626 302.163 100.552 302.308C100.478 302.453 100.435 302.613 100.426 302.775C100.417 302.938 100.443 303.101 100.501 303.253C100.559 303.406 100.649 303.544 100.764 303.659C102.786 305.626 103.867 306.475 106.378 309.005C107.92 310.566 110.016 312.994 112.149 315.146C114.282 317.297 116.516 315.293 115.842 314.222C112.721 309.356 113.285 307.537 113.072 305.063C113.041 304.607 112.848 304.178 112.528 303.853Z" fill="#263238"/>
<path d="M163.053 324.028H154.946C154.803 324.028 154.665 324.078 154.555 324.169C154.446 324.26 154.372 324.387 154.346 324.527L153.062 330.935C153.033 331.097 153.04 331.264 153.084 331.423C153.129 331.582 153.209 331.729 153.318 331.852C153.427 331.976 153.563 332.073 153.716 332.137C153.868 332.2 154.033 332.228 154.198 332.218C157.023 332.172 158.399 332.006 161.963 332.006C164.152 332.006 170.273 332.227 173.33 332.227C176.386 332.227 176.69 329.236 175.444 328.968C169.858 327.749 166.091 326.078 164.272 324.471C163.935 324.176 163.5 324.017 163.053 324.028Z" fill="#263238"/>
<path d="M165.195 308.507L163.736 317.703L156.645 316.512L158.002 307.98L165.195 308.507Z" fill="#CE6F64"/>
<path d="M115.362 288.498L121.465 292.339L116.968 297.676L110.727 293.992L115.362 288.498Z" fill="#CE6F64"/>
<path d="M160.846 158.011L189.599 163.616C204.455 123.386 201.223 122.066 201.223 122.066C199.134 120.918 196.975 119.9 194.76 119.019L194.372 118.871C192.526 118.197 192.156 118.095 189.7 117.375C185.471 116.369 181.529 115.528 176.644 114.836L175.721 114.707C174.797 114.596 173.957 114.504 173.108 114.42C172.535 114.356 171.963 114.319 171.418 114.282L169.571 114.18C166.413 114.023 164.151 114.07 164.151 114.07C165.028 139.194 163.606 146.405 160.846 158.011Z" fill="#263238"/>
<path d="M180.799 100.404C180.799 104.762 180.125 112.62 176.635 114.854C176.635 114.854 176.958 119.342 184.76 120.856C193.347 122.527 189.691 117.394 189.691 117.394C185.231 115.362 185.997 111.909 187.475 108.807L180.799 100.404Z" fill="#E4897B"/>
<path d="M183.523 103.83L187.475 108.807C187.129 109.526 186.844 110.273 186.625 111.041C184.88 110.432 182.803 107.994 182.932 106.083C182.991 105.302 183.191 104.539 183.523 103.83Z" fill="#CE6F64"/>
<path d="M180.384 90.3951C179.46 97.4956 178.897 100.478 181.741 104.772C186.016 111.235 194.935 110.819 197.973 104.144C200.743 98.1327 201.777 87.5235 195.452 83.4147C194.064 82.4976 192.464 81.9507 190.804 81.8261C189.145 81.7015 187.481 82.0033 185.971 82.7027C184.461 83.4022 183.155 84.4761 182.177 85.8225C181.199 87.1688 180.582 88.7429 180.384 90.3951Z" fill="#E4897B"/>
<path d="M203.495 79.1488C203.624 80.2749 203.54 81.4151 203.246 82.5098C203.179 82.1385 203.089 81.7716 202.978 81.411C200.448 73.0455 189.054 75.04 185.619 78.641C180.079 77.0528 174.807 78.3178 175.509 85.1044C175.596 86.8529 176.226 88.5308 177.309 89.9058C176.451 92.288 177.309 96.0829 180.144 96.1937C184.133 96.3507 187.919 91.0692 189.442 88.1699C192.212 88.6408 196.201 89.0932 199.229 88.3545C199.737 88.6593 200.153 88.8716 200.153 88.8716C203.375 87.145 205.831 85.4737 203.495 79.1488Z" fill="#263238"/>
<path d="M177.928 95.2427C177.815 96.6205 178.249 97.9873 179.137 99.0468C180.338 100.441 181.907 99.6193 182.471 97.9665C182.941 96.4707 182.877 93.95 181.27 93.1652C180.916 92.9988 180.526 92.9236 180.136 92.9464C179.745 92.9692 179.367 93.0893 179.035 93.2958C178.702 93.5023 178.427 93.7886 178.234 94.1286C178.04 94.4686 177.935 94.8516 177.928 95.2427Z" fill="#E4897B"/>
<path d="M189.165 163.616C189.165 163.616 189.275 220.697 184.603 242.192C179.747 264.556 165.463 315.432 165.463 315.432L155.121 314.093C155.121 314.093 163.219 262.7 166.663 240.475C170.421 216.256 168.122 159.516 168.122 159.516L189.165 163.616Z" fill="#407BFF"/>
<path opacity="0.3" d="M189.165 163.616C189.165 163.616 189.275 220.697 184.603 242.192C179.747 264.556 165.463 315.432 165.463 315.432L155.121 314.093C155.121 314.093 163.219 262.7 166.663 240.475C170.421 216.256 168.122 159.516 168.122 159.516L189.165 163.616Z" fill="black"/>
<path d="M167.226 316.327L153.348 314.536L153.939 309.624L169.691 311.471L167.226 316.327Z" fill="#263238"/>
<path d="M182.009 162.139C182.009 162.139 166.525 209.312 158.833 236.486C150.726 265.156 119.647 296.864 119.647 296.864L110.736 291.711C110.736 291.711 131.973 261.61 139.775 234.861C155.666 180.559 149.138 169.055 160.846 158.011L182.009 162.139Z" fill="#407BFF"/>
<path opacity="0.3" d="M182.009 162.139C182.009 162.139 166.525 209.312 158.833 236.486C150.726 265.156 119.647 296.864 119.647 296.864L110.736 291.711C110.736 291.711 131.973 261.61 139.775 234.861C155.666 180.559 149.138 169.055 160.846 158.011L182.009 162.139Z" fill="black"/>
<path d="M121.096 298.295L108.714 291.148L111.798 286.734L125.547 294.315L121.096 298.295Z" fill="#263238"/>
<path d="M190.633 94.4302C190.522 95.0026 190.734 95.5197 191.113 95.5936C191.492 95.6674 191.879 95.2612 192.036 94.6702C192.193 94.0793 191.935 93.5715 191.556 93.4976C191.178 93.4237 190.744 93.8577 190.633 94.4302Z" fill="#263238"/>
<path d="M197.087 95.6859C196.976 96.2584 197.189 96.7847 197.567 96.8585C197.946 96.9324 198.333 96.5261 198.444 95.9352C198.555 95.3442 198.343 94.8364 197.964 94.7718C197.586 94.7071 197.198 95.1042 197.087 95.6859Z" fill="#263238"/>
<path d="M197.798 94.7809L199.247 94.6609C199.247 94.6609 198.333 95.5935 197.798 94.7809Z" fill="#263238"/>
<path d="M195.194 96.3414C195.449 97.7414 195.897 99.0993 196.524 100.376C196.193 100.531 195.832 100.612 195.467 100.612C195.102 100.612 194.741 100.531 194.41 100.376L195.194 96.3414Z" fill="#DE5753"/>
<path d="M191.99 102.223C191.219 102.097 190.489 101.786 189.864 101.316C189.238 100.847 188.735 100.233 188.399 99.527C188.39 99.5064 188.385 99.4842 188.385 99.4618C188.385 99.4394 188.389 99.4171 188.398 99.3964C188.406 99.3757 188.419 99.357 188.435 99.3413C188.451 99.3257 188.47 99.3134 188.491 99.3054C188.533 99.2897 188.579 99.2905 188.62 99.3077C188.661 99.3248 188.694 99.357 188.713 99.3977C189.035 100.046 189.506 100.61 190.086 101.043C190.667 101.476 191.341 101.767 192.055 101.891C192.077 101.894 192.098 101.902 192.117 101.913C192.136 101.925 192.152 101.94 192.165 101.958C192.178 101.976 192.187 101.997 192.192 102.019C192.197 102.04 192.198 102.063 192.194 102.085C192.185 102.13 192.158 102.169 192.12 102.195C192.082 102.221 192.036 102.231 191.99 102.223Z" fill="#263238"/>
<path d="M189.165 91.9741C189.096 91.9736 189.03 91.9525 188.974 91.9138C188.917 91.8751 188.874 91.8204 188.849 91.7568C188.824 91.6932 188.819 91.6236 188.834 91.557C188.849 91.4904 188.884 91.4298 188.934 91.3832C189.33 91.0119 189.809 90.7404 190.33 90.5911C190.852 90.4417 191.402 90.4189 191.935 90.5244C192.022 90.5503 192.096 90.609 192.141 90.6883C192.185 90.7675 192.198 90.8611 192.175 90.9492C192.151 91.0358 192.094 91.1095 192.016 91.1545C191.938 91.1994 191.846 91.2119 191.759 91.1893C191.336 91.1143 190.902 91.1386 190.49 91.2604C190.078 91.3822 189.7 91.5981 189.386 91.891C189.325 91.945 189.246 91.9745 189.165 91.9741Z" fill="#263238"/>
<path d="M200.67 93.2575C200.602 93.2583 200.536 93.2384 200.479 93.2004C200.423 93.1625 200.38 93.1083 200.356 93.0451C200.197 92.6451 199.948 92.2875 199.627 92.0007C199.307 91.7138 198.924 91.5055 198.509 91.3923C198.465 91.3845 198.422 91.3681 198.384 91.3439C198.347 91.3197 198.314 91.2882 198.288 91.2513C198.262 91.2144 198.244 91.1728 198.234 91.1289C198.225 91.085 198.224 91.0396 198.232 90.9953C198.252 90.908 198.304 90.8313 198.377 90.7801C198.45 90.7289 198.54 90.7069 198.629 90.7183C199.156 90.8498 199.643 91.1053 200.051 91.4635C200.459 91.8216 200.776 92.2721 200.974 92.7773C200.992 92.8191 201.002 92.8641 201.003 92.9096C201.003 92.9551 200.994 93.0003 200.977 93.0424C200.96 93.0846 200.935 93.1229 200.902 93.155C200.87 93.1872 200.832 93.2126 200.79 93.2298L200.67 93.2575Z" fill="#263238"/>
<path d="M191.409 99.49C191.123 99.4911 190.841 99.4258 190.584 99.2992C190.328 99.1726 190.104 98.9883 189.931 98.7606C189.497 98.0834 189.207 97.3237 189.08 96.5293C188.953 95.7349 188.991 94.9228 189.193 94.1439C189.719 91.2261 191.547 88.8531 193.274 88.8531C193.561 88.8566 193.844 88.9248 194.101 89.0527C194.359 89.1806 194.584 89.3649 194.76 89.5918C195.193 90.2698 195.482 91.0293 195.609 91.8235C195.736 92.6176 195.699 93.4294 195.499 94.2085C194.973 97.1263 193.135 99.49 191.409 99.49ZM193.255 89.1117C191.64 89.1117 189.904 91.4016 189.396 94.2085C189.073 96.0552 189.331 97.7172 190.088 98.6129C190.242 98.8122 190.439 98.9739 190.665 99.0859C190.89 99.1979 191.138 99.2571 191.39 99.2592C193.015 99.2592 194.742 96.9786 195.25 94.1716H195.361H195.25C195.446 93.4295 195.485 92.6549 195.366 91.8967C195.247 91.1385 194.971 90.4134 194.557 89.7673C194.406 89.5692 194.212 89.4075 193.99 89.294C193.768 89.1806 193.523 89.1183 193.274 89.1117H193.255Z" fill="#FAFAFA"/>
<path d="M198.583 100.413C198.285 100.407 197.991 100.334 197.724 100.2C197.458 100.066 197.224 99.8738 197.041 99.6378C196.627 99.0161 196.346 98.315 196.217 97.579C196.088 96.843 196.114 96.0882 196.293 95.3627C196.764 92.6481 198.537 90.4506 200.245 90.4506C200.544 90.4579 200.838 90.5321 201.105 90.668C201.372 90.8038 201.605 90.9977 201.787 91.2354C202.199 91.8566 202.478 92.5562 202.606 93.2902C202.735 94.0243 202.711 94.777 202.535 95.5012C202.073 98.2251 200.301 100.413 198.583 100.413ZM200.217 90.6814C198.611 90.6814 196.949 92.7958 196.524 95.4089C196.358 96.1012 196.334 96.82 196.455 97.5217C196.576 98.2233 196.838 98.893 197.226 99.4901C197.388 99.6994 197.595 99.87 197.831 99.9898C198.068 100.11 198.328 100.175 198.592 100.183C200.199 100.183 201.87 98.0774 202.286 95.4643C202.451 94.7725 202.475 94.0543 202.356 93.353C202.237 92.6517 201.978 91.9817 201.593 91.3831C201.432 91.1721 201.225 90.9997 200.989 90.8783C200.753 90.757 200.492 90.6897 200.227 90.6814H200.217Z" fill="#FAFAFA"/>
<path d="M114.651 307.205C113.728 307.205 112.758 305.783 112.259 304.961C112.241 304.934 112.231 304.902 112.231 304.869C112.231 304.836 112.241 304.804 112.259 304.777C112.28 304.75 112.307 304.73 112.337 304.717C112.368 304.704 112.402 304.699 112.435 304.703C112.73 304.767 115.27 305.321 115.593 306.189C115.629 306.285 115.639 306.389 115.622 306.49C115.604 306.591 115.559 306.685 115.491 306.762C115.4 306.901 115.275 307.015 115.128 307.092C114.981 307.17 114.817 307.208 114.651 307.205ZM112.721 305.127C113.432 306.198 114.125 306.836 114.623 306.863C114.734 306.864 114.843 306.837 114.94 306.783C115.037 306.73 115.119 306.653 115.177 306.559C115.208 306.526 115.229 306.485 115.238 306.441C115.246 306.397 115.241 306.351 115.223 306.309C115.057 305.848 113.737 305.386 112.721 305.127Z" fill="#407BFF"/>
<path d="M113.137 305.127C112.857 305.132 112.578 305.101 112.306 305.035C112.278 305.025 112.253 305.01 112.232 304.989C112.211 304.968 112.196 304.943 112.186 304.915C112.165 304.862 112.165 304.802 112.186 304.749C112.251 304.693 113.663 303.299 114.707 303.299H114.781C114.91 303.308 115.036 303.343 115.15 303.404C115.265 303.464 115.365 303.548 115.445 303.65C115.54 303.749 115.598 303.876 115.611 304.011C115.625 304.147 115.592 304.283 115.519 304.398C115.224 304.897 114.042 305.127 113.137 305.127ZM112.722 304.767C113.59 304.869 114.993 304.62 115.279 304.204C115.325 304.139 115.362 304.038 115.224 303.862C115.176 303.795 115.112 303.739 115.038 303.7C114.964 303.662 114.882 303.642 114.799 303.641C114.007 303.793 113.281 304.186 112.722 304.767Z" fill="#407BFF"/>
<path d="M165.703 325.293C164.938 325.272 164.178 325.18 163.431 325.016C163.396 325.009 163.363 324.991 163.338 324.964C163.314 324.938 163.298 324.905 163.293 324.869C163.289 324.833 163.295 324.798 163.312 324.767C163.328 324.735 163.354 324.71 163.385 324.693C163.727 324.527 166.691 323.05 167.549 323.548C167.627 323.598 167.692 323.666 167.737 323.746C167.782 323.827 167.807 323.917 167.808 324.01C167.818 324.166 167.791 324.322 167.729 324.465C167.666 324.608 167.57 324.734 167.448 324.832C166.934 325.176 166.32 325.339 165.703 325.293ZM164.013 324.795C165.592 325.053 166.783 324.989 167.245 324.592C167.323 324.523 167.385 324.438 167.425 324.342C167.465 324.246 167.482 324.141 167.475 324.038C167.477 324.003 167.47 323.968 167.453 323.937C167.437 323.906 167.413 323.88 167.383 323.862C166.921 323.594 165.278 324.222 164.013 324.795Z" fill="#407BFF"/>
<path d="M163.477 325.016C163.444 325.026 163.409 325.026 163.376 325.016C163.349 324.999 163.327 324.974 163.314 324.944C163.301 324.915 163.297 324.882 163.302 324.85C163.302 324.721 163.745 321.785 165.352 321.785H165.49C165.952 321.831 166.081 322.062 166.109 322.255C166.238 323.068 164.447 324.638 163.542 325.025L163.477 325.016ZM165.324 322.098C164.281 322.098 163.819 323.797 163.662 324.536C164.585 323.991 165.813 322.763 165.74 322.274C165.74 322.274 165.74 322.126 165.416 322.098H165.324Z" fill="#407BFF"/>
<path d="M191.344 93.5253L192.793 93.396C192.793 93.396 191.879 94.3378 191.344 93.5253Z" fill="#263238"/>
<path d="M185.001 126.996C172.997 122.444 169.248 115.63 169.535 114.199L171.381 114.31H171.695C172.138 114.31 172.619 114.374 173.071 114.43C173.92 114.504 174.798 114.596 175.684 114.716L176.607 114.845C181.014 115.379 185.378 116.227 189.663 117.384C191.621 117.957 192.267 118.142 193.357 118.529L194.326 118.88L194.714 119.028C195.674 121.096 195.462 125.325 185.001 126.996Z" fill="#E4897B"/>
<path d="M185.001 126.996C172.997 122.444 169.248 115.63 169.535 114.199L171.381 114.31H171.695C174.133 117.772 179.47 122.555 184.908 123.211C189.285 122.287 193.412 121.235 193.375 118.529L194.345 118.88L194.733 119.028C195.674 121.096 195.462 125.325 185.001 126.996Z" fill="#407BFF"/>
<path opacity="0.3" d="M185.001 126.996C172.997 122.444 169.248 115.63 169.535 114.199L171.381 114.31H171.695C174.133 117.772 179.47 122.555 184.908 123.211C189.285 122.287 193.412 121.235 193.375 118.529L194.345 118.88L194.733 119.028C195.674 121.096 195.462 125.325 185.001 126.996Z" fill="black"/>
<path d="M160.744 156.239L158.898 158.565C158.759 158.741 158.962 158.99 159.295 159.055L189.451 164.927C189.709 164.983 189.95 164.927 189.996 164.733L190.753 162.213C190.808 162.037 190.614 161.843 190.328 161.788L161.206 156.119C161.125 156.101 161.041 156.103 160.961 156.124C160.881 156.145 160.807 156.184 160.744 156.239Z" fill="#263238"/>
<path d="M164.022 160.255L163.247 160.107C163.09 160.107 162.988 159.978 163.016 159.877L164.031 156.608C164.031 156.506 164.216 156.46 164.364 156.488L165.149 156.636C165.306 156.636 165.407 156.774 165.38 156.866L164.364 160.144C164.327 160.198 164.274 160.238 164.212 160.258C164.15 160.278 164.083 160.277 164.022 160.255Z" fill="#407BFF"/>
<path opacity="0.3" d="M164.022 160.255L163.247 160.107C163.09 160.107 162.988 159.978 163.016 159.877L164.031 156.608C164.031 156.506 164.216 156.46 164.364 156.488L165.149 156.636C165.306 156.636 165.407 156.774 165.38 156.866L164.364 160.144C164.327 160.198 164.274 160.238 164.212 160.258C164.15 160.278 164.083 160.277 164.022 160.255Z" fill="black"/>
<path d="M166.072 125.214C165.721 127.403 165.389 129.831 165.149 132.102C164.909 134.374 164.696 136.719 164.586 139.083C164.524 140.246 164.487 141.41 164.475 142.573C164.475 143.727 164.475 144.881 164.475 146.036C164.52 148.297 164.696 150.554 165.001 152.795C165.175 153.562 165.488 154.291 165.924 154.946C166.477 155.845 167.094 156.703 167.771 157.513C169.247 159.264 170.826 160.926 172.499 162.49C174.188 164.115 175.961 165.684 177.78 167.217C179.599 168.75 181.474 170.273 183.32 171.741L181.335 174.807C176.99 172.425 172.835 169.712 168.907 166.691C166.879 165.138 164.966 163.44 163.182 161.612C162.231 160.632 161.357 159.579 160.569 158.464C159.594 157.145 158.899 155.639 158.529 154.041L158.187 152.084C158.067 151.446 157.984 150.809 157.91 150.181C157.725 148.907 157.624 147.642 157.522 146.377C157.33 143.861 157.271 141.337 157.347 138.815C157.42 136.313 157.559 133.82 157.808 131.336C158.058 128.852 158.372 126.415 158.87 123.848L166.072 125.214Z" fill="#E4897B"/>
<path d="M159.941 115.999C155.989 119.194 156.931 128.686 156.931 128.686L170.227 133.063C170.227 133.063 169.618 122.121 168.972 118.188C168.177 113.506 163.819 112.851 159.941 115.999Z" fill="#263238"/>
<path d="M181.695 171.151L187.706 168.916L186.783 174.632C186.783 174.632 182.424 176.201 180.19 174.188L181.695 171.151Z" fill="#E4897B"/>
<path d="M194.862 169.766V174.179L186.783 174.632L187.706 168.916L194.862 169.766Z" fill="#E4897B"/>
<path d="M187.244 164.78L186.469 164.632C186.312 164.632 186.21 164.503 186.238 164.401L187.254 161.132C187.254 161.031 187.438 160.985 187.595 161.012L188.371 161.16C188.528 161.16 188.629 161.299 188.602 161.391L187.586 164.669C187.558 164.761 187.438 164.816 187.244 164.78Z" fill="#407BFF"/>
<path opacity="0.3" d="M187.244 164.78L186.469 164.632C186.312 164.632 186.21 164.503 186.238 164.401L187.254 161.132C187.254 161.031 187.438 160.985 187.595 161.012L188.371 161.16C188.528 161.16 188.629 161.299 188.602 161.391L187.586 164.669C187.558 164.761 187.438 164.816 187.244 164.78Z" fill="black"/>
<path d="M175.638 162.508L174.853 162.36C174.696 162.36 174.594 162.231 174.631 162.129L175.647 158.861C175.647 158.759 175.822 158.713 175.979 158.741L176.764 158.889C176.912 158.889 177.023 159.027 176.986 159.119L175.97 162.397C175.942 162.508 175.795 162.554 175.638 162.508Z" fill="#407BFF"/>
<path opacity="0.3" d="M175.638 162.508L174.853 162.36C174.696 162.36 174.594 162.231 174.631 162.129L175.647 158.861C175.647 158.759 175.822 158.713 175.979 158.741L176.764 158.889C176.912 158.889 177.023 159.027 176.986 159.119L175.97 162.397C175.942 162.508 175.795 162.554 175.638 162.508Z" fill="black"/>
<path d="M116.83 216.348L164.696 320.889C165.794 323.265 167.786 325.11 170.239 326.022C172.693 326.933 175.407 326.837 177.789 325.755L185.388 322.283L361.35 241.722C363.727 240.628 365.574 238.638 366.487 236.186C367.401 233.734 367.306 231.02 366.225 228.638L323.927 136.304L318.387 124.106C317.287 121.732 315.295 119.888 312.842 118.977C310.39 118.066 307.677 118.16 305.294 119.24L121.724 203.264C119.347 204.359 117.499 206.348 116.583 208.798C115.666 211.249 115.755 213.963 116.83 216.348Z" fill="#407BFF"/>
<path opacity="0.1" d="M116.83 216.348L164.696 320.889C165.794 323.265 167.786 325.11 170.239 326.022C172.693 326.933 175.407 326.837 177.789 325.755L185.388 322.283L361.35 241.722C363.727 240.628 365.574 238.638 366.487 236.186C367.401 233.734 367.306 231.02 366.225 228.638L323.927 136.304L318.387 124.106C317.287 121.732 315.295 119.888 312.842 118.977C310.39 118.066 307.677 118.16 305.294 119.24L121.724 203.264C119.347 204.359 117.499 206.348 116.583 208.798C115.666 211.249 115.755 213.963 116.83 216.348Z" fill="white"/>
<path d="M159.843 310.289L361.365 218.025L337.78 166.511L136.258 258.775L159.843 310.289Z" fill="#407BFF"/>
<path opacity="0.3" d="M159.843 310.289L361.365 218.025L337.78 166.511L136.258 258.775L159.843 310.289Z" fill="white"/>
<path d="M210.526 267.081L337.875 208.776L329.434 190.34L202.085 248.645L210.526 267.081Z" fill="#407BFF"/>
<path opacity="0.8" d="M210.526 267.081L337.875 208.776L329.434 190.34L202.085 248.645L210.526 267.081Z" fill="white"/>
<path d="M140.758 268.622L342.28 176.358L329.696 148.872L128.173 241.136L140.758 268.622Z" fill="#407BFF"/>
<path opacity="0.3" d="M140.758 268.622L342.28 176.358L329.696 148.872L128.173 241.136L140.758 268.622Z" fill="black"/>
<g style="mix-blend-mode:multiply">
<path d="M144.198 217.659L185.389 322.246L361.35 241.685C363.727 240.591 365.574 238.601 366.487 236.149C367.401 233.697 367.307 230.983 366.225 228.601L323.927 136.267L149.775 204.853C147.343 205.818 145.391 207.706 144.346 210.106C143.301 212.505 143.248 215.221 144.198 217.659Z" fill="#407BFF"/>
</g>
<path d="M377.102 184.601L376.231 184.907L377.673 189.01L378.544 188.704L377.102 184.601Z" fill="#407BFF"/>
<path opacity="0.1" d="M377.102 184.601L376.231 184.907L377.673 189.01L378.544 188.704L377.102 184.601Z" fill="white"/>
<path d="M369.825 163.969L368.954 164.275L374.632 180.444L375.503 180.138L369.825 163.969Z" fill="#407BFF"/>
<path opacity="0.1" d="M369.825 163.969L368.954 164.275L374.632 180.444L375.503 180.138L369.825 163.969Z" fill="white"/>
<path d="M156.451 205.213L346.936 138.317C349.407 137.457 352.118 137.61 354.477 138.743C356.835 139.877 358.649 141.898 359.521 144.364L397.618 252.848C398.479 255.319 398.327 258.03 397.196 260.39C396.064 262.75 394.045 264.566 391.58 265.442L201.094 332.338C198.622 333.196 195.91 333.042 193.551 331.909C191.192 330.776 189.376 328.756 188.5 326.29L150.403 217.807C149.543 215.335 149.696 212.622 150.829 210.262C151.962 207.902 153.983 206.087 156.451 205.213Z" fill="#407BFF"/>
<path opacity="0.1" d="M156.451 205.213L346.936 138.317C349.407 137.457 352.118 137.61 354.477 138.743C356.835 139.877 358.649 141.898 359.521 144.364L397.618 252.848C398.479 255.319 398.327 258.03 397.196 260.39C396.064 262.75 394.045 264.566 391.58 265.442L201.094 332.338C198.622 333.196 195.91 333.042 193.551 331.909C191.192 330.776 189.376 328.756 188.5 326.29L150.403 217.807C149.543 215.335 149.696 212.622 150.829 210.262C151.962 207.902 153.983 206.087 156.451 205.213Z" fill="white"/>
<path d="M181.558 306.508L390.677 233.071L374.104 185.879L164.985 259.316L181.558 306.508Z" fill="#407BFF"/>
<path opacity="0.3" d="M181.558 306.508L390.677 233.071L374.104 185.879L164.985 259.316L181.558 306.508Z" fill="white"/>
<path d="M308.209 184.831L351.437 169.651L349.072 162.916L305.844 178.097L308.209 184.831Z" fill="#407BFF"/>
<path opacity="0.8" d="M308.209 184.831L351.437 169.651L349.072 162.916L305.844 178.097L308.209 184.831Z" fill="white"/>
<path d="M344.589 261.08L379.271 248.9L378.035 245.381L343.353 257.56L344.589 261.08Z" fill="#407BFF"/>
<path opacity="0.8" d="M344.589 261.08L379.271 248.9L378.035 245.381L343.353 257.56L344.589 261.08Z" fill="white"/>
<path d="M336.942 271.332L381.633 255.637L380.397 252.117L335.706 267.812L336.942 271.332Z" fill="#407BFF"/>
<path opacity="0.8" d="M336.942 271.332L381.633 255.637L380.397 252.117L335.706 267.812L336.942 271.332Z" fill="white"/>
<path d="M201.355 318.947L223.701 311.1L221.042 303.53L198.696 311.377L201.355 318.947Z" fill="#407BFF"/>
<path opacity="0.8" d="M201.355 318.947L223.701 311.1L221.042 303.53L198.696 311.377L201.355 318.947Z" fill="white"/>
<path d="M340.519 238.684L366.612 229.524C367.988 229.035 369.115 228.022 369.747 226.706C370.38 225.39 370.468 223.878 369.992 222.498C369.502 221.122 368.489 219.995 367.174 219.362C365.858 218.73 364.345 218.642 362.965 219.118L336.862 228.287C335.487 228.776 334.36 229.789 333.727 231.105C333.094 232.421 333.006 233.933 333.483 235.314C333.974 236.69 334.989 237.816 336.307 238.447C337.625 239.078 339.138 239.163 340.519 238.684Z" fill="#407BFF"/>
<path d="M295.82 254.381L321.923 245.212C323.288 244.72 324.406 243.713 325.036 242.406C325.666 241.099 325.758 239.596 325.293 238.222C324.802 236.848 323.788 235.724 322.472 235.093C321.157 234.462 319.645 234.375 318.266 234.852L292.173 244.021C290.797 244.51 289.67 245.523 289.038 246.839C288.405 248.155 288.317 249.667 288.793 251.047C289.292 252.414 290.309 253.53 291.623 254.154C292.938 254.778 294.446 254.859 295.82 254.381Z" fill="#407BFF"/>
<path d="M251.149 270.077L277.252 260.909C278.614 260.413 279.727 259.404 280.354 258.098C280.98 256.791 281.07 255.291 280.603 253.919C280.112 252.545 279.099 251.42 277.783 250.789C276.467 250.158 274.956 250.072 273.577 250.549L247.456 259.681C246.082 260.172 244.957 261.186 244.326 262.501C243.695 263.817 243.609 265.328 244.085 266.707C244.576 268.09 245.596 269.221 246.92 269.853C248.244 270.485 249.765 270.566 251.149 270.077Z" fill="#407BFF"/>
<path d="M206.431 285.774L232.534 276.605C233.901 276.115 235.021 275.109 235.653 273.801C236.285 272.494 236.379 270.991 235.914 269.616C235.422 268.242 234.409 267.117 233.093 266.486C231.777 265.855 230.266 265.769 228.887 266.245L202.784 275.414C201.408 275.904 200.282 276.916 199.649 278.232C199.016 279.548 198.928 281.061 199.405 282.441C199.903 283.808 200.92 284.924 202.235 285.548C203.55 286.171 205.057 286.253 206.431 285.774Z" fill="#407BFF"/>
<g opacity="0.8">
<path opacity="0.8" d="M340.519 238.684L366.612 229.524C367.988 229.035 369.115 228.022 369.747 226.706C370.38 225.39 370.468 223.878 369.992 222.498C369.502 221.122 368.489 219.995 367.174 219.362C365.858 218.73 364.345 218.642 362.965 219.118L336.862 228.287C335.487 228.776 334.36 229.789 333.727 231.105C333.094 232.421 333.006 233.933 333.483 235.314C333.974 236.69 334.989 237.816 336.307 238.447C337.625 239.078 339.138 239.163 340.519 238.684Z" fill="white"/>
<path opacity="0.8" d="M295.82 254.381L321.923 245.212C323.288 244.72 324.406 243.713 325.036 242.406C325.666 241.099 325.758 239.596 325.293 238.222C324.802 236.848 323.788 235.724 322.472 235.093C321.157 234.462 319.645 234.375 318.266 234.852L292.173 244.021C290.797 244.51 289.67 245.523 289.038 246.839C288.405 248.155 288.317 249.667 288.793 251.047C289.292 252.414 290.309 253.53 291.623 254.154C292.938 254.778 294.446 254.859 295.82 254.381Z" fill="white"/>
<path opacity="0.8" d="M251.149 270.077L277.252 260.908C278.614 260.413 279.727 259.404 280.354 258.097C280.98 256.791 281.07 255.291 280.603 253.919C280.112 252.545 279.099 251.42 277.783 250.789C276.467 250.158 274.956 250.072 273.577 250.549L247.456 259.68C246.082 260.172 244.957 261.185 244.326 262.501C243.695 263.817 243.609 265.328 244.085 266.707C244.576 268.09 245.596 269.221 246.92 269.853C248.244 270.485 249.765 270.565 251.149 270.077Z" fill="white"/>
<path opacity="0.8" d="M206.431 285.774L232.534 276.605C233.901 276.115 235.021 275.109 235.653 273.801C236.285 272.494 236.379 270.991 235.914 269.616C235.422 268.242 234.409 267.117 233.093 266.486C231.777 265.855 230.266 265.769 228.887 266.245L202.784 275.414C201.408 275.904 200.282 276.916 199.649 278.232C199.016 279.548 198.928 281.061 199.405 282.441C199.903 283.808 200.92 284.924 202.235 285.548C203.55 286.171 205.057 286.253 206.431 285.774Z" fill="white"/>
</g>
<path d="M338.196 217.683L361.421 209.527C363.394 208.834 364.432 206.673 363.739 204.7L358.899 190.918C358.206 188.946 356.045 187.908 354.073 188.601L330.847 196.757C328.874 197.45 327.837 199.611 328.529 201.583L333.369 215.365C334.062 217.338 336.223 218.376 338.196 217.683Z" fill="#407BFF"/>
<path opacity="0.3" d="M338.196 217.683L361.421 209.527C363.394 208.834 364.432 206.673 363.739 204.7L358.899 190.918C358.206 188.946 356.045 187.908 354.073 188.601L330.847 196.757C328.874 197.45 327.837 199.611 328.529 201.583L333.369 215.365C334.062 217.338 336.223 218.376 338.196 217.683Z" fill="black"/>
<path d="M201.288 231.953C197.938 231.953 194.709 230.696 192.241 228.43C189.773 226.163 188.247 223.053 187.963 219.714C187.679 216.375 188.66 213.052 190.71 210.402C192.76 207.752 195.731 205.968 199.034 205.404C202.336 204.839 205.731 205.536 208.544 207.355C211.358 209.174 213.386 211.984 214.227 215.227C215.068 218.471 214.66 221.912 213.085 224.869C211.51 227.826 208.881 230.084 205.72 231.196C204.297 231.697 202.798 231.953 201.288 231.953ZM201.288 206.099C199.87 206.102 198.463 206.342 197.124 206.81C193.988 207.913 191.417 210.216 189.978 213.213C188.539 216.21 188.35 219.656 189.451 222.793C190.215 224.959 191.559 226.874 193.337 228.328C195.115 229.782 197.258 230.72 199.533 231.038C201.807 231.356 204.126 231.043 206.234 230.133C208.343 229.222 210.161 227.75 211.49 225.876C212.818 224.003 213.606 221.8 213.767 219.509C213.929 217.218 213.457 214.926 212.404 212.885C211.351 210.844 209.758 209.131 207.797 207.934C205.837 206.738 203.585 206.103 201.288 206.099Z" fill="#407BFF"/>
<path opacity="0.8" d="M201.288 231.953C197.938 231.953 194.709 230.696 192.241 228.43C189.773 226.163 188.247 223.053 187.963 219.714C187.679 216.375 188.66 213.052 190.71 210.402C192.76 207.752 195.731 205.968 199.034 205.404C202.336 204.839 205.731 205.536 208.544 207.355C211.358 209.174 213.386 211.984 214.227 215.227C215.068 218.471 214.66 221.912 213.085 224.869C211.51 227.826 208.881 230.084 205.72 231.196C204.297 231.697 202.798 231.953 201.288 231.953ZM201.288 206.099C199.87 206.102 198.463 206.342 197.124 206.81C193.988 207.913 191.417 210.216 189.978 213.213C188.539 216.21 188.35 219.656 189.451 222.793C190.215 224.959 191.559 226.874 193.337 228.328C195.115 229.782 197.258 230.72 199.533 231.038C201.807 231.356 204.126 231.043 206.234 230.133C208.343 229.222 210.161 227.75 211.49 225.876C212.818 224.003 213.606 221.8 213.767 219.509C213.929 217.218 213.457 214.926 212.404 212.885C211.351 210.844 209.758 209.131 207.797 207.934C205.837 206.738 203.585 206.103 201.288 206.099Z" fill="white"/>
<path d="M169.969 229.607C170.82 232.016 172.366 234.119 174.411 235.65C176.457 237.181 178.91 238.071 181.461 238.209C184.012 238.346 186.547 237.725 188.745 236.423C190.943 235.121 192.706 233.196 193.812 230.893C194.917 228.59 195.315 226.01 194.955 223.481C194.596 220.952 193.495 218.586 191.791 216.682C190.088 214.777 187.858 213.421 185.384 212.783C182.91 212.145 180.303 212.255 177.891 213.098C176.285 213.659 174.806 214.532 173.538 215.667C172.27 216.801 171.239 218.174 170.503 219.708C169.767 221.242 169.341 222.906 169.249 224.604C169.158 226.303 169.402 228.003 169.969 229.607Z" fill="#407BFF"/>
<path opacity="0.8" d="M169.969 229.607C170.82 232.016 172.366 234.119 174.411 235.65C176.457 237.181 178.91 238.071 181.461 238.209C184.012 238.346 186.547 237.725 188.745 236.423C190.943 235.121 192.706 233.196 193.812 230.893C194.917 228.59 195.315 226.01 194.955 223.481C194.596 220.952 193.495 218.586 191.791 216.682C190.088 214.777 187.858 213.421 185.384 212.783C182.91 212.145 180.303 212.255 177.891 213.098C176.285 213.659 174.806 214.532 173.538 215.667C172.27 216.801 171.239 218.174 170.503 219.708C169.767 221.242 169.341 222.906 169.249 224.604C169.158 226.303 169.402 228.003 169.969 229.607Z" fill="white"/>
</svg>
